<svg xmlns="http://www.w3.org/2000/svg" viewBox="0 0 539.25 578"><defs><style>.cls-1{fill:#ff0;stroke-width:5px;}.cls-1,.cls-2{stroke:#ff0;stroke-miterlimit:10;}.cls-2{fill:none;stroke-width:12px;}</style></defs><title>Безымянный-1</title><g id="Слой_6" data-name="Слой 6"><polygon class="cls-1" points="468.22 157.5 346.22 157.5 284.22 50.5 255.22 50.5 193.22 157.5 71.22 157.5 57.22 183.5 118.22 288.5 57.22 396.5 69.22 419.5 194.22 419.5 255.22 525.5 284.22 525.5 345.22 419.5 468.22 419.5 481.22 394.5 420.22 287.5 481.22 182.5 468.22 157.5"/><circle class="cls-1" cx="44.72" cy="158" r="25.5"/><circle class="cls-1" cx="269.72" cy="28" r="25.5"/><circle class="cls-1" cx="269.72" cy="550" r="25.5"/><circle class="cls-1" cx="495.72" cy="417" r="25.5"/><circle class="cls-1" cx="44.72" cy="417" r="25.5"/><circle class="cls-1" cx="495.72" cy="158" r="25.5"/><path class="cls-2" d="M539,194c51.92,114.85,6,201,1,216" transform="translate(-30.28 -14)"/><path class="cls-2" d="M516,453c-33.57,56.25-122.51,109.65-190,111" transform="translate(-30.28 -14)"/><path class="cls-2" d="M274,564c-69.18.21-153.2-49.86-193-114" transform="translate(-30.28 -14)"/><path class="cls-2" d="M60,411c-31.15-57.58-32.44-160,1-220" transform="translate(-30.28 -14)"/></g><g id="Слой_4" data-name="Слой 4"><path class="cls-2" d="M87.5,146.5c34.8-54.79,119.71-101.65,187-104" transform="translate(-30.28 -14)"/><path class="cls-2" d="M326,42c78.79,7.86,162.67,55.71,188,108" transform="translate(-30.28 -14)"/></g></svg>