<?xml version="1.0" encoding="utf-8"?>
<!-- Generator: Adobe Illustrator 22.0.1, SVG Export Plug-In . SVG Version: 6.00 Build 0)  -->
<svg version="1.1" id="Слой_1" xmlns="http://www.w3.org/2000/svg" xmlns:xlink="http://www.w3.org/1999/xlink" x="0px" y="0px"
	 viewBox="0 0 1300 186" style="enable-background:new 0 0 1300 186;" xml:space="preserve">
<style type="text/css">
	.st0{clip-path:url(#SVGID_2_);}
	.st1{clip-path:url(#SVGID_4_);fill:none;stroke:#006837;stroke-width:6.1952;stroke-miterlimit:10;}
	.st2{clip-path:url(#SVGID_4_);fill:#006837;}
	.st3{clip-path:url(#SVGID_4_);fill:#009245;}
	.st4{clip-path:url(#SVGID_4_);fill:none;stroke:#006837;stroke-width:2.7879;stroke-miterlimit:10;}
	.st5{clip-path:url(#SVGID_2_);fill:#FFFF00;}
	.st6{clip-path:url(#SVGID_2_);fill:none;stroke:#FFFF00;stroke-width:1.5488;stroke-miterlimit:10;}
	.st7{clip-path:url(#SVGID_6_);fill:#FFFF00;}
	.st8{clip-path:url(#SVGID_6_);fill:none;stroke:#FFFF00;stroke-width:1.5488;stroke-miterlimit:10;}
	.st9{clip-path:url(#SVGID_6_);fill:none;stroke:#FFFF00;stroke-width:3.7171;stroke-miterlimit:10;}
	.st10{clip-path:url(#SVGID_8_);fill:#009245;}
	.st11{clip-path:url(#SVGID_8_);fill:none;stroke:#006837;stroke-width:2.7879;stroke-miterlimit:10;}
	.st12{clip-path:url(#SVGID_10_);fill:#009245;}
	.st13{clip-path:url(#SVGID_10_);fill:none;stroke:#006837;stroke-width:2.7879;stroke-miterlimit:10;}
	.st14{clip-path:url(#SVGID_10_);fill:none;stroke:#006837;stroke-width:6.1952;stroke-miterlimit:10;}
</style>
<g>
	<g>
		<defs>
			<rect id="SVGID_1_" x="0" width="1300" height="186"/>
		</defs>
		<clipPath id="SVGID_2_">
			<use xlink:href="#SVGID_1_"  style="overflow:visible;"/>
		</clipPath>
		<g class="st0">
			<defs>
				<rect id="SVGID_3_" x="0" width="1300" height="186"/>
			</defs>
			<clipPath id="SVGID_4_">
				<use xlink:href="#SVGID_3_"  style="overflow:visible;"/>
			</clipPath>
			<path class="st1" d="M938.6,35.5c0,35.1-52.6,144.3-69.5,144.3"/>
			<path class="st1" d="M870.7,179.5c-20.9,0-37.8,2.9-37.8,6.6"/>
			<path class="st1" d="M366.3,35.5c0,35.1,52.6,144.3,69.5,144.3"/>
			<path class="st1" d="M434.3,179.5c20.9,0,37.8,2.9,37.8,6.6"/>
			<path class="st2" d="M437.2,181.5c-0.5,0.1-1,0-1.5-0.2c-0.5-0.3-1,0.5-0.5,0.8c0.6,0.3,1.3,0.4,1.9,0.4c0.3,0,0.5-0.2,0.5-0.5
				C437.7,181.7,437.5,181.5,437.2,181.5"/>
			<path class="st2" d="M434.5,181.6c0.6,0.2,1.2,0.4,1.8,0.5l0.1-0.9c-0.6,0.1-1.2,0.1-1.8,0.2c-0.5,0-0.6,0.7-0.1,0.9
				c1.4,0.5,2.8,0.7,4.3,0.6c1.5-0.1,2.9-0.9,4.5-0.8c0.6,0,0.6-0.9,0-0.9c-1.3-0.1-2.3,0.4-3.5,0.7c-1.7,0.4-3.4,0.2-5-0.4
				l-0.1,0.9c0.6,0,1.2-0.1,1.8-0.2c0.5,0,0.7-0.8,0.1-0.9l-1.8-0.5C434.1,180.6,433.9,181.5,434.5,181.6"/>
			<path class="st2" d="M436.1,182.3c0.6,0,0.6-0.9,0-0.9C435.5,181.4,435.5,182.3,436.1,182.3"/>
			<path class="st2" d="M435.7,182.6c0.6,0,0.6-0.9,0-0.9C435.1,181.7,435.1,182.6,435.7,182.6"/>
			<path class="st2" d="M435.7,182.7c0.6,0,0.6-0.9,0-0.9C435.1,181.8,435.1,182.7,435.7,182.7"/>
			<path class="st2" d="M435.8,182.9c0.6,0,0.6-0.9,0-0.9C435.2,182,435.2,182.9,435.8,182.9"/>
			<path class="st2" d="M436.1,182.9c0.6,0,0.6-0.9,0-0.9C435.5,182,435.5,182.9,436.1,182.9"/>
			<path class="st3" d="M403.1,171.7c-13.2-1.5-26.2-18.5-23-23.4c3.8-5.9,33.1,1.8,35.1,13.1c0.4,2.2,0,5.8-2.4,8.1
				C409.8,172.4,405,171.9,403.1,171.7"/>
			<path class="st4" d="M403.1,171.7c-13.2-1.5-26.2-18.5-23-23.4c3.8-5.9,33.1,1.8,35.1,13.1c0.4,2.2,0,5.8-2.4,8.1
				C409.8,172.4,405,171.9,403.1,171.7z"/>
			<path class="st3" d="M383.6,142.4c-12.3-4.9-20.4-24.8-16.1-28.7c5.2-4.7,31.5,10.4,30.4,21.9c-0.2,2.2-1.6,5.6-4.4,7.2
				C389.9,144.9,385.4,143.1,383.6,142.4"/>
			<path class="st4" d="M383.6,142.4c-12.3-4.9-20.4-24.8-16.1-28.7c5.2-4.7,31.5,10.4,30.4,21.9c-0.2,2.2-1.6,5.6-4.4,7.2
				C389.9,144.9,385.4,143.1,383.6,142.4z"/>
			<path class="st3" d="M368.6,109.6c-11.8-6.1-17.9-26.6-13.3-30.1c5.6-4.2,30.4,13.4,28.2,24.6c-0.4,2.2-2.1,5.4-5.1,6.8
				C374.6,112.7,370.3,110.5,368.6,109.6"/>
			<path class="st4" d="M368.6,109.6c-11.8-6.1-17.9-26.6-13.3-30.1c5.6-4.2,30.4,13.4,28.2,24.6c-0.4,2.2-2.1,5.4-5.1,6.8
				C374.6,112.7,370.3,110.5,368.6,109.6z"/>
			<path class="st3" d="M355.4,75.8c-12-5.8-18.6-26.1-14.1-29.7c5.5-4.3,30.7,12.6,28.8,23.9c-0.4,2.2-1.9,5.5-4.9,6.9
				C361.4,78.8,357.1,76.7,355.4,75.8"/>
			<path class="st4" d="M355.4,75.8c-12-5.8-18.6-26.1-14.1-29.7c5.5-4.3,30.7,12.6,28.8,23.9c-0.4,2.2-1.9,5.5-4.9,6.9
				C361.4,78.8,357.1,76.7,355.4,75.8z"/>
			<path class="st3" d="M354.9,38.3c-6-11.9,1-32.1,6.8-32.2c7-0.1,16.7,28.7,8.4,36.5c-1.6,1.5-4.9,3.2-8.1,2.5
				C358,44.3,355.8,40,354.9,38.3"/>
			<path class="st4" d="M354.9,38.3c-6-11.9,1-32.1,6.8-32.2c7-0.1,16.7,28.7,8.4,36.5c-1.6,1.5-4.9,3.2-8.1,2.5
				C358,44.3,355.8,40,354.9,38.3z"/>
			<path class="st3" d="M434.7,156.9c4.2-12.6-5.6-31.6-11.3-30.8c-6.9,0.9-12.5,30.8-3.1,37.4c1.8,1.3,5.3,2.4,8.4,1.3
				C432.5,163.3,434.1,158.7,434.7,156.9"/>
			<path class="st4" d="M434.7,156.9c4.2-12.6-5.6-31.6-11.3-30.8c-6.9,0.9-12.5,30.8-3.1,37.4c1.8,1.3,5.3,2.4,8.4,1.3
				C432.5,163.3,434.1,158.7,434.7,156.9z"/>
			<path class="st3" d="M417.3,126.8c5.4-12.2-2.7-32-8.5-31.8c-7,0.3-15.3,29.5-6.5,36.9c1.7,1.4,5,2.9,8.2,2.1
				C414.6,132.9,416.5,128.5,417.3,126.8"/>
			<path class="st4" d="M417.3,126.8c5.4-12.2-2.7-32-8.5-31.8c-7,0.3-15.3,29.5-6.5,36.9c1.7,1.4,5,2.9,8.2,2.1
				C414.6,132.9,416.5,128.5,417.3,126.8z"/>
			<path class="st3" d="M403.7,94.8c6.6-11.5,0.7-32.1-5.1-32.5c-6.9-0.5-18.3,27.7-10.4,36c1.5,1.6,4.7,3.4,7.9,2.9
				C400.3,100.7,402.7,96.5,403.7,94.8"/>
			<path class="st4" d="M403.7,94.8c6.6-11.5,0.7-32.1-5.1-32.5c-6.9-0.5-18.3,27.7-10.4,36c1.5,1.6,4.7,3.4,7.9,2.9
				C400.3,100.7,402.7,96.5,403.7,94.8z"/>
			<path class="st3" d="M374.2,61.5c-3.6-12.8,7.1-31.3,12.8-30.3c6.9,1.2,11,31.3,1.3,37.5c-1.9,1.2-5.4,2.2-8.4,0.9
				C376.1,68,374.8,63.4,374.2,61.5"/>
			<path class="st4" d="M374.2,61.5c-3.6-12.8,7.1-31.3,12.8-30.3c6.9,1.2,11,31.3,1.3,37.5c-1.9,1.2-5.4,2.2-8.4,0.9
				C376.1,68,374.8,63.4,374.2,61.5z"/>
		</g>
		<polygon class="st5" points="713.9,53.2 676.2,53.2 657,20 648,20 628.8,53.2 591,53.2 586.7,61.2 605.6,93.8 586.7,127.3 
			590.4,134.4 629.1,134.4 648,167.2 657,167.2 675.8,134.4 713.9,134.4 717.9,126.6 699.1,93.5 717.9,60.9 		"/>
		<polygon class="st6" points="713.9,53.2 676.2,53.2 657,20 648,20 628.8,53.2 591,53.2 586.7,61.2 605.6,93.8 586.7,127.3 
			590.4,134.4 629.1,134.4 648,167.2 657,167.2 675.8,134.4 713.9,134.4 717.9,126.6 699.1,93.5 717.9,60.9 		"/>
		<g class="st0">
			<defs>
				<rect id="SVGID_5_" x="559.6" width="185.7" height="186"/>
			</defs>
			<clipPath id="SVGID_6_">
				<use xlink:href="#SVGID_5_"  style="overflow:visible;"/>
			</clipPath>
			<path class="st7" d="M574.9,53.3c0-4.4,3.5-7.9,7.9-7.9s7.9,3.5,7.9,7.9c0,4.4-3.5,7.9-7.9,7.9S574.9,57.7,574.9,53.3"/>
			<ellipse class="st8" cx="582.8" cy="53.3" rx="7.9" ry="7.9"/>
			<path class="st7" d="M644.6,13c0-4.4,3.5-7.9,7.9-7.9c4.4,0,7.9,3.5,7.9,7.9c0,4.4-3.5,7.9-7.9,7.9
				C648.1,20.9,644.6,17.4,644.6,13"/>
			<ellipse class="st8" cx="652.5" cy="13" rx="7.9" ry="7.9"/>
			<path class="st7" d="M644.6,174.8c0-4.4,3.5-7.9,7.9-7.9c4.4,0,7.9,3.5,7.9,7.9c0,4.4-3.5,7.9-7.9,7.9
				C648.1,182.7,644.6,179.2,644.6,174.8"/>
			<ellipse class="st8" cx="652.5" cy="174.8" rx="7.9" ry="7.9"/>
			<path class="st7" d="M714.5,133.6c0-4.4,3.5-7.9,7.9-7.9c4.4,0,7.9,3.5,7.9,7.9c0,4.4-3.5,7.9-7.9,7.9
				C718.1,141.5,714.5,138,714.5,133.6"/>
			<ellipse class="st8" cx="722.4" cy="133.6" rx="7.9" ry="7.9"/>
			<path class="st7" d="M574.9,133.6c0-4.4,3.5-7.9,7.9-7.9s7.9,3.5,7.9,7.9c0,4.4-3.5,7.9-7.9,7.9S574.9,138,574.9,133.6"/>
			<ellipse class="st8" cx="582.8" cy="133.6" rx="7.9" ry="7.9"/>
			<path class="st7" d="M714.5,53.3c0-4.4,3.5-7.9,7.9-7.9c4.4,0,7.9,3.5,7.9,7.9c0,4.4-3.5,7.9-7.9,7.9
				C718.1,61.2,714.5,57.7,714.5,53.3"/>
			<ellipse class="st8" cx="722.4" cy="53.3" rx="7.9" ry="7.9"/>
			<path class="st9" d="M726.5,60.1c16.1,35.6,1.9,62.3,0.3,67"/>
			<path class="st9" d="M719.3,140.4c-10.4,17.4-37.9,34-58.8,34.4"/>
			<path class="st9" d="M644.4,174.8c-21.4,0.1-47.4-15.5-59.7-35.3"/>
			<path class="st9" d="M578.2,127.4c-9.6-17.8-10-49.6,0.3-68.2"/>
			<path class="st9" d="M586.7,45.4c10.8-17,37.1-31.5,57.9-32.2"/>
			<path class="st9" d="M660.5,13c24.4,2.4,50.4,17.3,58.2,33.5"/>
		</g>
		<g class="st0">
			<defs>
				<rect id="SVGID_7_" x="0" width="1300" height="186"/>
			</defs>
			<clipPath id="SVGID_8_">
				<use xlink:href="#SVGID_7_"  style="overflow:visible;"/>
			</clipPath>
			<path class="st10" d="M901.8,171.7c13.2-1.5,26.2-18.5,23-23.4c-3.8-5.9-33.1,1.8-35.1,13.1c-0.4,2.2,0,5.8,2.4,8.1
				C895.1,172.4,899.9,171.9,901.8,171.7"/>
			<path class="st11" d="M901.8,171.7c13.2-1.5,26.2-18.5,23-23.4c-3.8-5.9-33.1,1.8-35.1,13.1c-0.4,2.2,0,5.8,2.4,8.1
				C895.1,172.4,899.9,171.9,901.8,171.7z"/>
			<path class="st10" d="M921.4,142.4c12.3-4.9,20.4-24.8,16.1-28.7c-5.2-4.7-31.5,10.4-30.4,21.9c0.2,2.2,1.6,5.6,4.4,7.2
				C915.1,144.9,919.6,143.1,921.4,142.4"/>
			<path class="st11" d="M921.4,142.4c12.3-4.9,20.4-24.8,16.1-28.7c-5.2-4.7-31.5,10.4-30.4,21.9c0.2,2.2,1.6,5.6,4.4,7.2
				C915.1,144.9,919.6,143.1,921.4,142.4z"/>
			<path class="st10" d="M936.4,109.6c11.8-6.1,17.9-26.6,13.3-30.1c-5.6-4.2-30.4,13.4-28.2,24.6c0.4,2.2,2.1,5.4,5.1,6.8
				C930.4,112.7,934.6,110.5,936.4,109.6"/>
			<path class="st11" d="M936.4,109.6c11.8-6.1,17.9-26.6,13.3-30.1c-5.6-4.2-30.4,13.4-28.2,24.6c0.4,2.2,2.1,5.4,5.1,6.8
				C930.4,112.7,934.6,110.5,936.4,109.6z"/>
			<path class="st10" d="M949.6,75.8c12-5.8,18.6-26.1,14.1-29.7c-5.5-4.3-30.7,12.6-28.8,23.9c0.4,2.2,1.9,5.5,4.9,6.9
				C943.5,78.8,947.9,76.7,949.6,75.8"/>
			<path class="st11" d="M949.6,75.8c12-5.8,18.6-26.1,14.1-29.7c-5.5-4.3-30.7,12.6-28.8,23.9c0.4,2.2,1.9,5.5,4.9,6.9
				C943.5,78.8,947.9,76.7,949.6,75.8z"/>
			<path class="st10" d="M950.1,38.3c6-11.9-1-32.1-6.8-32.2c-7-0.1-16.7,28.7-8.4,36.5c1.6,1.5,4.9,3.2,8.1,2.5
				C947,44.3,949.2,40,950.1,38.3"/>
			<path class="st11" d="M950.1,38.3c6-11.9-1-32.1-6.8-32.2c-7-0.1-16.7,28.7-8.4,36.5c1.6,1.5,4.9,3.2,8.1,2.5
				C947,44.3,949.2,40,950.1,38.3z"/>
		</g>
		<g class="st0">
			<defs>
				<rect id="SVGID_9_" x="0" width="1300" height="186"/>
			</defs>
			<clipPath id="SVGID_10_">
				<use xlink:href="#SVGID_9_"  style="overflow:visible;"/>
			</clipPath>
			<path class="st12" d="M870.3,156.9c-4.2-12.6,5.6-31.6,11.3-30.8c6.9,0.9,12.5,30.8,3.1,37.4c-1.8,1.3-5.3,2.4-8.4,1.3
				C872.4,163.3,870.9,158.7,870.3,156.9"/>
			<path class="st13" d="M870.3,156.9c-4.2-12.6,5.6-31.6,11.3-30.8c6.9,0.9,12.5,30.8,3.1,37.4c-1.8,1.3-5.3,2.4-8.4,1.3
				C872.4,163.3,870.9,158.7,870.3,156.9z"/>
			<path class="st12" d="M887.7,126.8c-5.4-12.2,2.7-32,8.5-31.8c7,0.3,15.3,29.5,6.5,36.9c-1.7,1.4-5,2.9-8.2,2.1
				C890.4,132.9,888.5,128.5,887.7,126.8"/>
			<path class="st13" d="M887.7,126.8c-5.4-12.2,2.7-32,8.5-31.8c7,0.3,15.3,29.5,6.5,36.9c-1.7,1.4-5,2.9-8.2,2.1
				C890.4,132.9,888.5,128.5,887.7,126.8z"/>
			<path class="st12" d="M901.3,94.8c-6.6-11.5-0.7-32.1,5.1-32.5c6.9-0.5,18.3,27.7,10.4,36c-1.5,1.6-4.7,3.4-7.9,2.9
				C904.6,100.7,902.2,96.5,901.3,94.8"/>
			<path class="st13" d="M901.3,94.8c-6.6-11.5-0.7-32.1,5.1-32.5c6.9-0.5,18.3,27.7,10.4,36c-1.5,1.6-4.7,3.4-7.9,2.9
				C904.6,100.7,902.2,96.5,901.3,94.8z"/>
			<path class="st12" d="M930.7,61.5c3.6-12.8-7.1-31.3-12.8-30.3c-6.9,1.2-11,31.3-1.3,37.5c1.9,1.2,5.4,2.2,8.4,0.9
				C928.9,68,930.2,63.4,930.7,61.5"/>
			<path class="st13" d="M930.7,61.5c3.6-12.8-7.1-31.3-12.8-30.3c-6.9,1.2-11,31.3-1.3,37.5c1.9,1.2,5.4,2.2,8.4,0.9
				C928.9,68,930.2,63.4,930.7,61.5z"/>
			<path class="st14" d="M1279.4,69.7c-11.8,33.1-98,118.2-113.9,112.5"/>
			<path class="st14" d="M1167.1,182.4c-19.7-7-36.5-9.9-37.8-6.5"/>
			<path class="st12" d="M1199.1,185.5c13,3,30.9-8.6,29.6-14.3c-1.6-6.8-31.8-9.5-37.4,0.5c-1.1,1.9-1.9,5.5-0.5,8.5
				C1192.5,184,1197.2,185.1,1199.1,185.5"/>
			<path class="st13" d="M1199.1,185.5c13,3,30.9-8.6,29.6-14.3c-1.6-6.8-31.8-9.5-37.4,0.5c-1.1,1.9-1.9,5.5-0.5,8.5
				C1192.5,184,1197.2,185.1,1199.1,185.5z"/>
			<path class="st12" d="M1227.3,164.5c13.3-0.5,27.5-16.5,24.8-21.6c-3.3-6.1-33.2-0.8-36,10.3c-0.5,2.1-0.4,5.8,1.7,8.3
				C1220.6,164.8,1225.4,164.6,1227.3,164.5"/>
			<path class="st13" d="M1227.3,164.5c13.3-0.5,27.5-16.5,24.8-21.6c-3.3-6.1-33.2-0.8-36,10.3c-0.5,2.1-0.4,5.8,1.7,8.3
				C1220.6,164.8,1225.4,164.6,1227.3,164.5z"/>
			<path class="st12" d="M1252.4,138.7c13.2-1.8,25.8-19,22.6-23.8c-3.9-5.8-33.1,2.4-34.8,13.7c-0.3,2.2,0.1,5.8,2.5,8.1
				C1245.7,139.6,1250.5,138.9,1252.4,138.7"/>
			<path class="st13" d="M1252.4,138.7c13.2-1.8,25.8-19,22.6-23.8c-3.9-5.8-33.1,2.4-34.8,13.7c-0.3,2.2,0.1,5.8,2.5,8.1
				C1245.7,139.6,1250.5,138.9,1252.4,138.7z"/>
			<path class="st12" d="M1276.2,111.3c13.2-1.4,26.3-18.3,23.2-23.2c-3.7-5.9-33.1,1.5-35.2,12.8c-0.4,2.2,0,5.8,2.3,8.2
				C1269.5,112,1274.3,111.5,1276.2,111.3"/>
			<path class="st13" d="M1276.2,111.3c13.2-1.4,26.3-18.3,23.2-23.2c-3.7-5.9-33.1,1.5-35.2,12.8c-0.4,2.2,0,5.8,2.3,8.2
				C1269.5,112,1274.3,111.5,1276.2,111.3z"/>
			<path class="st12" d="M1289.3,76.1c9.6-9.2,9.8-30.6,4.3-32.6c-6.5-2.4-25.4,21.4-20.2,31.6c1,2,3.5,4.6,6.8,5.1
				C1284.4,80.7,1287.9,77.4,1289.3,76.1"/>
			<path class="st13" d="M1289.3,76.1c9.6-9.2,9.8-30.6,4.3-32.6c-6.5-2.4-25.4,21.4-20.2,31.6c1,2,3.5,4.6,6.8,5.1
				C1284.4,80.7,1287.9,77.4,1289.3,76.1z"/>
			<path class="st12" d="M1174.3,161c0.2-13.3,15.9-27.9,21-25.2c6.2,3.2,1.4,33.2-9.6,36.2c-2.1,0.6-5.8,0.5-8.3-1.6
				C1174.2,167.7,1174.3,162.9,1174.3,161"/>
			<path class="st13" d="M1174.3,161c0.2-13.3,15.9-27.9,21-25.2c6.2,3.2,1.4,33.2-9.6,36.2c-2.1,0.6-5.8,0.5-8.3-1.6
				C1174.2,167.7,1174.3,162.9,1174.3,161z"/>
			<path class="st12" d="M1200.8,138.5c-1-13.3,13.2-29.2,18.6-27.1c6.5,2.6,4.5,32.9-6.2,37c-2.1,0.8-5.7,1.1-8.4-0.8
				C1201.3,145.2,1200.9,140.4,1200.8,138.5"/>
			<path class="st13" d="M1200.8,138.5c-1-13.3,13.2-29.2,18.6-27.1c6.5,2.6,4.5,32.9-6.2,37c-2.1,0.8-5.7,1.1-8.4-0.8
				C1201.3,145.2,1200.9,140.4,1200.8,138.5z"/>
			<path class="st12" d="M1224.3,112.9c-2.4-13.1,10.1-30.5,15.7-28.9c6.7,1.9,7.9,32.3-2.3,37.4c-2,1-5.6,1.7-8.5,0.1
				C1225.5,119.6,1224.7,114.8,1224.3,112.9"/>
			<path class="st13" d="M1224.3,112.9c-2.4-13.1,10.1-30.5,15.7-28.9c6.7,1.9,7.9,32.3-2.3,37.4c-2,1-5.6,1.7-8.5,0.1
				C1225.5,119.6,1224.7,114.8,1224.3,112.9z"/>
			<path class="st12" d="M1263.3,91.5c7.7-10.8,3.8-31.9-1.9-32.8c-6.9-1.2-20.9,25.8-13.8,34.8c1.4,1.7,4.3,3.9,7.6,3.7
				C1259.3,97,1262.1,93.1,1263.3,91.5"/>
			<path class="st13" d="M1263.3,91.5c7.7-10.8,3.8-31.9-1.9-32.8c-6.9-1.2-20.9,25.8-13.8,34.8c1.4,1.7,4.3,3.9,7.6,3.7
				C1259.3,97,1262.1,93.1,1263.3,91.5z"/>
			<path class="st14" d="M20.4,69.7c11.8,33.1,98,118.2,113.9,112.5"/>
			<path class="st14" d="M132.7,182.4c19.7-7,36.5-9.9,37.8-6.5"/>
			<path class="st12" d="M100.7,185.5c-13,3-30.9-8.6-29.6-14.3c1.6-6.8,31.8-9.5,37.4,0.5c1.1,1.9,1.9,5.5,0.5,8.5
				C107.3,184,102.6,185.1,100.7,185.5"/>
			<path class="st13" d="M100.7,185.5c-13,3-30.9-8.6-29.6-14.3c1.6-6.8,31.8-9.5,37.4,0.5c1.1,1.9,1.9,5.5,0.5,8.5
				C107.3,184,102.6,185.1,100.7,185.5z"/>
			<path class="st12" d="M72.5,164.5C59.2,164,45,148.1,47.7,143c3.3-6.1,33.2-0.8,36,10.3c0.5,2.1,0.4,5.8-1.7,8.3
				C79.2,164.8,74.4,164.6,72.5,164.5"/>
			<path class="st13" d="M72.5,164.5C59.2,164,45,148.1,47.7,143c3.3-6.1,33.2-0.8,36,10.3c0.5,2.1,0.4,5.8-1.7,8.3
				C79.2,164.8,74.4,164.6,72.5,164.5z"/>
			<path class="st12" d="M47.4,138.7c-13.2-1.8-25.8-19-22.6-23.8c3.9-5.8,33.1,2.4,34.8,13.7c0.3,2.2-0.1,5.8-2.5,8.1
				C54.1,139.6,49.3,138.9,47.4,138.7"/>
			<path class="st13" d="M47.4,138.7c-13.2-1.8-25.8-19-22.6-23.8c3.9-5.8,33.1,2.4,34.8,13.7c0.3,2.2-0.1,5.8-2.5,8.1
				C54.1,139.6,49.3,138.9,47.4,138.7z"/>
			<path class="st12" d="M23.6,111.3C10.3,109.9-2.7,93,0.4,88.1c3.7-5.9,33.1,1.5,35.2,12.8c0.4,2.2,0,5.8-2.3,8.2
				C30.3,112,25.5,111.5,23.6,111.3"/>
			<path class="st13" d="M23.6,111.3C10.3,109.9-2.7,93,0.4,88.1c3.7-5.9,33.1,1.5,35.2,12.8c0.4,2.2,0,5.8-2.3,8.2
				C30.3,112,25.5,111.5,23.6,111.3z"/>
			<path class="st12" d="M10.5,76.1c-9.6-9.2-9.8-30.6-4.3-32.6c6.5-2.4,25.4,21.4,20.2,31.6c-1,2-3.5,4.6-6.8,5.1
				C15.4,80.7,11.9,77.4,10.5,76.1"/>
			<path class="st13" d="M10.5,76.1c-9.6-9.2-9.8-30.6-4.3-32.6c6.5-2.4,25.4,21.4,20.2,31.6c-1,2-3.5,4.6-6.8,5.1
				C15.4,80.7,11.9,77.4,10.5,76.1z"/>
			<path class="st12" d="M125.5,161c-0.2-13.3-15.9-27.9-21-25.2c-6.2,3.2-1.4,33.2,9.6,36.2c2.1,0.6,5.8,0.5,8.3-1.6
				C125.6,167.7,125.5,162.9,125.5,161"/>
			<path class="st13" d="M125.5,161c-0.2-13.3-15.9-27.9-21-25.2c-6.2,3.2-1.4,33.2,9.6,36.2c2.1,0.6,5.8,0.5,8.3-1.6
				C125.6,167.7,125.5,162.9,125.5,161z"/>
			<path class="st12" d="M99,138.5c1-13.3-13.2-29.2-18.6-27.1c-6.5,2.6-4.5,32.9,6.2,37c2.1,0.8,5.7,1.1,8.4-0.8
				C98.5,145.2,98.8,140.4,99,138.5"/>
			<path class="st13" d="M99,138.5c1-13.3-13.2-29.2-18.6-27.1c-6.5,2.6-4.5,32.9,6.2,37c2.1,0.8,5.7,1.1,8.4-0.8
				C98.5,145.2,98.8,140.4,99,138.5z"/>
			<path class="st12" d="M75.5,112.9c2.4-13.1-10.1-30.5-15.7-28.9c-6.7,1.9-7.9,32.3,2.3,37.4c2,1,5.6,1.7,8.5,0.1
				C74.2,119.6,75.1,114.8,75.5,112.9"/>
			<path class="st13" d="M75.5,112.9c2.4-13.1-10.1-30.5-15.7-28.9c-6.7,1.9-7.9,32.3,2.3,37.4c2,1,5.6,1.7,8.5,0.1
				C74.2,119.6,75.1,114.8,75.5,112.9z"/>
			<path class="st12" d="M36.5,91.5c-7.7-10.8-3.8-31.9,1.9-32.8c6.9-1.2,20.9,25.8,13.8,34.8c-1.4,1.7-4.3,3.9-7.6,3.7
				C40.4,97,37.7,93.1,36.5,91.5"/>
			<path class="st13" d="M36.5,91.5c-7.7-10.8-3.8-31.9,1.9-32.8c6.9-1.2,20.9,25.8,13.8,34.8c-1.4,1.7-4.3,3.9-7.6,3.7
				C40.4,97,37.7,93.1,36.5,91.5z"/>
		</g>
	</g>
</g>
</svg>
