<?xml version="1.0" encoding="utf-8"?>
<!-- Generator: Adobe Illustrator 22.0.1, SVG Export Plug-In . SVG Version: 6.00 Build 0)  -->
<svg version="1.1" xmlns="http://www.w3.org/2000/svg" xmlns:xlink="http://www.w3.org/1999/xlink" x="0px" y="0px"
	 viewBox="0 0 1300 700" style="enable-background:new 0 0 1300 700;" xml:space="preserve">
<style type="text/css">
	.st0{fill:#00418F;}
	.st1{stroke:#000000;stroke-width:20;stroke-miterlimit:10;}
	.st2{fill:none;stroke:#000000;stroke-width:20;stroke-miterlimit:10;}
	.st3{fill:none;stroke:#000000;stroke-width:12;stroke-miterlimit:10;}
</style>
<g id="Слой_4">
	<g>
		<g>
			<path class="st0" d="M229.1,404.9c19.4,6,38.5,12.6,57.3,20c1.8,0.7,2.6-2.2,0.8-2.9c-18.9-7.4-38-14-57.3-20
				C228,401.5,227.2,404.4,229.1,404.9L229.1,404.9z"/>
		</g>
	</g>
	<g>
		<g>
			<path class="st0" d="M355.3,324.9c0-3.9,0.2-7.8,0.6-11.6c-1.8,13.3-3.6,26.6-5.4,39.9c3.2-23.4,14.6-44.3,22.7-66.2
				c1.9-5.2,3.7-10.5,5.1-15.9c0.7-2.8,1.3-5.6,1.8-8.5c2.6-15.3,4.8-31.1,6.2-46.6c0.5-5.8,0.3-11.4-0.4-17.2
				c-2.1-17.7-2.8-36.8-8.8-53.9c-4.8-13.8-11.1-27.5-17.1-40.8c-1.1-2.5-2.2-4.9-3.5-7.2c-8.3-15.3-21.9-30.7-31.9-43.2
				c-6.8-8.6-14.5-16.4-22.9-23.5C274.4,7,245.1-14.1,214-32.2c-23.5-13.8-49.1-25.1-74.9-33.7c-12.9-4.3-25.8-5.5-39.3-7.4
				c-14.3-1.9-27.8-4.5-42.1-3.1c-20.7-0.8-39.9,3.5-57.8,12.9c-18.6,6-34.7,16.4-48.3,31c-14.6,13.6-25,29.7-31,48.3
				C-88.8,33.7-93.1,53-92.3,73.6c1.8,13.3,3.6,26.6,5.4,39.9c7.1,25.4,20,47.5,38.6,66.2c10.1,7.8,20.2,15.6,30.4,23.5
				c23.4,13.6,48.6,20.4,75.7,20.5c142.1,4.5,284.1,11.7,425.9,21.6c71.3,5,142.6,10.6,213.9,16.9c69,6.1,138.2,15.1,207.5,17.4
				c51.3,1.7,101.9-3,152.6-11.8c37.8-6.5,74-19.6,112-25c-13.3,1.8-26.6,3.6-39.9,5.4c20.6-2.7,42.9-5.3,63.7-2.5
				c-13.3-1.8-26.6-3.6-39.9-5.4c2.7,0.5,5.3,1.1,7.9,2.1c-11.9-5-23.9-10.1-35.8-15.1c2.4,1,4.5,2.2,6.6,3.8
				c-10.1-7.8-20.2-15.6-30.4-23.5c1.8,1.5,3.4,3.1,4.9,4.9c-7.8-10.1-15.6-20.2-23.5-30.4c2.2,2.9,3.9,5.9,5.4,9.2
				c-5-11.9-10.1-23.9-15.1-35.8c6.6,16,8.1,34.2,10.9,51.2c3.3,19.9,6.2,39.8,8.9,59.7c-1.8-13.3-3.6-26.6-5.4-39.9
				c15.2,113.6,21.3,228.3,22.5,342.9c0.3,32.3,0.2,64.7-0.1,97c63.3-48.2,126.6-96.4,189.9-144.6c-137.2-23.3-274.4-46.7-411.6-70
				c-67.6-11.5-135.2-23.4-202.9-34.4c-78.5-12.7-157.8-24.6-237.3-27.3c-36.6-1.2-73.3-0.3-109.8,3.7c-31.1,3.4-62.3,7.4-93,13.6
				c-18.2,3.7-36.2,9.2-54.6,11.8c13.3-1.8,26.6-3.6,39.9-5.4c-8,1-15.8,1.3-23.8,0.4c13.3,1.8,26.6,3.6,39.9,5.4
				c-7.5-1-14.6-3.1-21.5-5.9c11.9,5,23.9,10.1,35.8,15.1c-8.8-3.9-16.9-8.9-24.6-14.8c10.1,7.8,20.2,15.6,30.4,23.5
				c-16.2-12.6-29.9-28.1-42.5-44.2c7.8,10.1,15.6,20.2,23.5,30.4c-30.1-39-51.7-83.6-70.9-128.8c5,11.9,10.1,23.9,15.1,35.8
				c-4.2-10-8.4-20.1-12.5-30.2c-4.1-10.1-9.1-20.2-10.7-31c1.8,13.3,3.6,26.6,5.4,39.9c-0.2-2.2-0.2-4.2,0-6.4
				c-1.8,13.3-3.6,26.6-5.4,39.9c0.4-2,0.8-3.8,1.6-5.6c-5,11.9-10.1,23.9-15.1,35.8c0.7-1.4,1.4-2.6,2.2-3.9
				c-7.8,10.1-15.6,20.2-23.5,30.4c1.2-1.6,2.5-2.9,4-4.1c-10.1,7.8-20.2,15.6-30.4,23.5c2-1.5,4.1-2.7,6.4-3.7
				c-11.9,5-23.9,10.1-35.8,15.1c3.5-1.3,7.1-2.2,10.8-2.7c-13.3,1.8-26.6,3.6-39.9,5.4c7.8-0.9,15.6-0.6,23.4,0.4
				c-13.3-1.8-26.6-3.6-39.9-5.4c106.7,14.3,213.5,28,320,43.5c53.5,7.8,106.6,17.1,159.9,26c25.2,4.2,50.6,7.7,75.9,10.5
				c13.3,1.5,26.6,2.4,39.9,2.4c25.7,0,51.4-4.3,76.7-8c12.8-1.9,25.5-4.5,38.1-7.6c56.7-13.9,111.7-34.1,169.7-42
				c-13.3,1.8-26.6,3.6-39.9,5.4c26.7-3.5,53.5-4.2,80.3-0.8c-13.3-1.8-26.6-3.6-39.9-5.4c19.4,2.7,38.4,7.5,56.5,15
				c-11.9-5-23.9-10.1-35.8-15.1c12.7,5.5,24.8,12.2,35.8,20.5c-10.1-7.8-20.2-15.6-30.4-23.5c4.8,3.8,9.1,8.1,12.9,12.9
				c-7.8-10.1-15.6-20.2-23.5-30.4c3.7,4.9,6.8,10,9.2,15.6c-5-11.9-10.1-23.9-15.1-35.8c1.2,3.2,2.2,6.4,2.8,9.8
				c-1.8-13.3-3.6-26.6-5.4-39.9c0.4,3.2,0.5,6.3,0,9.5c1.8-13.3,3.6-26.6,5.4-39.9c-0.4,2.1-1,4-1.7,5.9
				c5-11.9,10.1-23.9,15.1-35.8c-0.9,2-2,3.7-3.3,5.4c7.8-10.1,15.6-20.2,23.5-30.4c-1.6,1.8-3.2,3.4-5.1,4.8
				c10.1-7.8,20.2-15.6,30.4-23.5c-1.5,1-2.9,1.8-4.5,2.6c11.9-5,23.9-10.1,35.8-15.1c-2.7,1.1-5.4,1.9-8.3,2.4
				c13.3-1.8,26.6-3.6,39.9-5.4c-4.9,0.6-9.8,0.4-14.7-0.2c13.3,1.8,26.6,3.6,39.9,5.4c-10.8-1.6-21.2-4.9-31.8-7.1
				c-17.7-3.6-35.8-5.6-53.8-7.5c-6.1-0.6-12.1-0.9-18.2-0.8c-5.7,0.1-11.5,0.5-17.2,1.2c-18.6,2.2-37.5,4.2-55.9,8
				c-11.4,2.4-22.6,5.8-33.5,9.9c-33.9,12.9-67.1,27.2-97.1,47.8c-30.4,20.8-59.2,44.2-87.2,68.1c-21.6,18.4-42.7,37.3-65.2,54.7
				c10.1-7.8,20.2-15.6,30.4-23.5c-35.8,27.5-75,49.9-116.5,67.6c11.9-5,23.9-10.1,35.8-15.1c-55,23.1-113.1,37.8-172.2,45.8
				c13.3-1.8,26.6-3.6,39.9-5.4c-88.2,11.6-177.5,7.6-265.5-4.1c13.3,1.8,26.6,3.6,39.9,5.4c-63.9-8.6-127.1-21.2-190-35.1
				c-19.9-6.3-39.9-7.1-59.8-2.7c-20,0.9-38.6,6.8-55.8,17.8c-17.5,9.4-31.5,22.3-42.1,38.6c-13.3,14.5-22.2,31.5-26.8,51
				c-1.8,13.3-3.6,26.6-5.4,39.9c0.1,27.1,6.9,52.3,20.5,75.7c7.8,10.1,15.6,20.2,23.5,30.4c18.7,18.6,40.8,31.4,66.2,38.6
				c62.9,13.9,126.1,26.4,190,35.1c75.5,10.2,150.7,18.6,227,15.9c40.5-1.4,80.2-6.6,120.3-12.1c27.8-3.8,55.3-9.1,82.5-16.1
				c27-7,53.6-15.6,79.5-26.1c36.8-14.9,73.4-30.3,107.7-50.4c37.9-22.2,72.7-49.7,106.3-77.8c25.3-21.1,49.6-43.4,75.6-63.7
				c-10.1,7.8-20.2,15.6-30.4,23.5c23.7-18.3,48.7-34.5,76.2-46.3c-11.9,5-23.9,10.1-35.8,15.1c17.5-7.3,35.7-12.7,54.5-15.4
				c-13.3,1.8-26.6,3.6-39.9,5.4c14.3-1.9,28.6-2.1,42.9-0.3c-13.3-1.8-26.6-3.6-39.9-5.4c8.9,1.2,17.4,3.5,26.1,5.6
				c4.1,1,8.3,2,12.5,2.7c14.4,2.4,29.2,4.3,43.7,5.9c2.2,0.2,4.4,0.5,6.6,0.5c2.1,0,4.2-0.1,6.3-0.3c13.8-1.3,29.7-2.9,43.3-5.9
				c1.7-0.4,3.3-0.9,5-1.5c8.3-3.1,28.7-11.4,36.6-15.5c1-0.5,2.1-1,3.1-1.6c24.9-14.5,33.2-24.4,48.7-44.4c4.3-5.6,10-12,14-18.5
				c0.4-0.7,0.7-1.4,1.1-2.1c5-11.9,10.1-23.9,15.1-35.8c0.3-0.7,0.6-1.4,0.8-2.2c2.2-7.7,2.5-15.8,3.6-23.7
				c0.8-5.9,2.8-16.1,3-23.8c0-1.6-0.1-3.2-0.3-4.8c-0.8-9.3-3.7-31.4-5.5-40.7c-0.3-1.4-0.5-2.7-0.9-4.1c-0.4-1.7-1-3.3-1.6-4.9
				c-4.7-13-10.7-26.5-16.5-39.1c-1.8-3.9-4-7.5-6.5-11c-9.2-12.7-18.6-26-29.3-37.5c-7-7.5-15.8-13.5-23.9-19.7
				c-12-9.3-23.5-18.4-36.9-25.5c-18.8-9.9-38.7-17.9-58.6-25.3c-8.5-3.1-17.2-5.7-26-7.7c-21.2-4.8-43.3-7.1-64.8-9.6
				c-9.5-1.1-19-1.7-28.5-1.9c-32.1-0.5-64.2,4.7-95.8,9.5c-21,3.2-41.7,7.9-62.2,13.2c-46.4,12.1-92,28.7-139.6,35.5
				c13.3-1.8,26.6-3.6,39.9-5.4c-29,3.9-57.9,2.5-86.8-1.3c13.3,1.8,26.6,3.6,39.9,5.4c-37.5-5.1-74.7-12.7-112-18.7
				c-36.7-5.9-73.5-11.3-110.4-16.4c-74.7-10.4-149.5-20.3-224.3-30.3c-18.5-2.5-37-5-55.5-7.5c-40.3-5.4-73.2-11.7-113.5,0.9
				c-29.3,9.2-56,22.9-77.7,45.2c-10.2,10.5-19.5,22.4-26.9,35.1c-15.4,26.5-21.3,52.4-22.7,82.7c-1.4,32,7.5,56.5,18.9,84.4
				c16.8,41.2,33.5,82.8,54.1,122.2c20.3,38.8,46,74.3,74.4,107.7c19.5,22.9,42.2,40.7,66.7,58.4c6.7,4.8,13.8,8.9,21.3,12.3
				c12.6,5.7,31.6,14.9,47.3,19.1c15.5,4.1,37.2,6.1,49.9,7.3c22,2.1,44.6-2.7,66.1-6.1c10.4-1.6,20.5-4.2,30.7-6.7
				c19.8-4.8,39.9-8.5,60.1-11.2c-13.3,1.8-26.6,3.6-39.9,5.4c83.8-11.1,168.5-5.2,252,6c-13.3-1.8-26.6-3.6-39.9-5.4
				c88.3,12,176,28.4,263.8,43.3c89.5,15.2,179,30.5,268.5,45.7c50.7,8.6,101.3,17.2,152,25.9c26.6,7.1,53.2,7.1,79.8,0
				c19.5-4.6,36.5-13.6,51-26.8c16.3-10.6,29.2-24.6,38.6-42.1c13.6-23.4,20.4-48.6,20.5-75.7c1.2-107.9-0.8-215.9-9.8-323.5
				c-5.5-66-13.7-131.9-23.9-197.3c-2.1-13.3-4.2-26.5-6.6-39.7c-0.9-5.3-1.8-10.6-3-15.9c-2.5-11.3-7.4-21.3-11.9-32.1
				c-3-7-6.1-16.4-10.4-23.5c-0.6-1-1.3-2-2-2.9c-5.7-8.1-17.5-23.5-24-31.1c-11.2-13-25.6-24.2-41-31.7c-13-6.4-27.1-13.6-41.6-17
				c-14.6-3.4-31.1-4.8-46-6.3c-5.9-0.6-11.9-0.5-17.9-0.4c-21.1,0.4-41.8,3.1-62.6,5.9c-20.9,2.8-41.4,5.8-61.9,10.9
				c-29,7.2-57.4,15.3-87,19.3c13.3-1.8,26.6-3.6,39.9-5.4c-59.7,7.7-120,3.6-179.7-2C759.5-32.1,698-38,636.4-43.1
				c-123-10.2-246.2-18.5-369.5-24.7c-69.7-3.5-139.5-6.4-209.2-8.6c0,100,0,200,0,300c7.4-0.7,14.7-0.6,22.1,0.4
				c-13.3-1.8-26.6-3.6-39.9-5.4c10.4,1.6,20.2,4.7,29.9,8.7c-11.9-5-23.9-10.1-35.8-15.1c27.5,11.8,54,28.8,77.8,47
				c-10.1-7.8-20.2-15.6-30.4-23.5c11.5,8.9,22.3,18.7,31.2,30.2c-7.8-10.1-15.6-20.2-23.5-30.4c4.7,6.3,8.8,12.9,11.9,20.1
				c-5-11.9-10.1-23.9-15.1-35.8c2.5,6.1,4.3,12.4,5.3,19c-1.8-13.3-3.6-26.6-5.4-39.9c0.9,7,0.8,14-0.1,21
				c1.8-13.3,3.6-26.6,5.4-39.9c-2.8,18.6-10.7,35.8-17.9,53.1C61.5,262,55,293.6,55.3,324.9c-0.8,20.7,3.5,39.9,12.9,57.8
				c6,18.6,16.4,34.7,31,48.3c13.6,14.6,29.7,25,48.3,31c17.9,9.4,37.1,13.7,57.8,12.9c13.3-1.8,26.6-3.6,39.9-5.4
				c25.4-7.1,47.5-20,66.2-38.6c7.8-10.1,15.6-20.2,23.5-30.4C348.4,377.3,355.3,352,355.3,324.9L355.3,324.9z"/>
		</g>
	</g>
	<path class="st1" d="M464,310c21.3-15.7,94.7-65.7,199-61c87.4,3.9,148.1,44.1,171,61"/>
</g>
<g id="Слой_2">
	<g>
		<g>
			<path d="M820,323c0,13.2,0,26.3,0,39.5c0,15.4,24,15.5,24,0c0-13.2,0-26.3,0-39.5C844,307.6,820,307.5,820,323L820,323z"/>
		</g>
	</g>
	<g>
		<g>
			<path d="M837,380c5.1-0.1,14,3.6,17.2,8.2c0.6,0.9,0.6,1.3,1,2.9c0.5,2,0.9,4.1,1.2,6.2c0.8,4.9,2.1,9.3,4.3,13.7
				c2.8,5.8,11.2,7.4,16.4,4.3c6-3.5,7.1-10.5,4.3-16.4c-1.5-3.2-1.9-9.3-2.9-13.5c-1.4-5.9-4.3-11.5-8.8-15.6
				c-8.5-8-20.9-14-32.8-13.8C821.6,356.3,821.5,380.3,837,380L837,380z"/>
		</g>
	</g>
	<g>
		<g>
			<path d="M858.1,407c0.2,5.4,0.3,10.8-1,16c-1.4,5.2-4.6,9.6-7.5,14c-2.6,3.8-5.3,7.2-9.3,9.4c-4.7,2.6-10.1,3.8-15.2,5
				c-15,3.7-8.6,26.9,6.4,23.1c7.4-1.8,15.1-3.9,21.7-7.9c6.8-4.1,11.8-9.8,16.3-16.3c4.2-6.1,8.2-12.3,10.4-19.4
				c2.4-7.7,2.6-16.1,2.4-24.1C881.7,391.6,857.7,391.5,858.1,407L858.1,407z"/>
		</g>
	</g>
	<g>
		<g>
			<path d="M817,457c-12.9,29.6-27.2,58.5-41,87.7c-2.8,5.9-1.6,12.9,4.3,16.4c5.2,3.1,13.6,1.6,16.4-4.3
				c13.8-29.1,28.1-58.1,41-87.7c2.6-5.9,1.7-12.9-4.3-16.4C828.3,449.7,819.6,451,817,457L817,457z"/>
		</g>
	</g>
	<g>
		<g>
			<path d="M787.3,524.3c-13.6,30.1-32.4,59.3-55,83.5c-21.5,23.1-49.4,39-81.2,41.9c-6.5,0.6-12,5.1-12,12c0,6,5.5,12.6,12,12
				c36.9-3.5,70.1-19.8,95.8-46.5c12.4-12.8,23.2-27.3,33.3-42c10.6-15.5,20.1-31.8,27.9-48.9c2.7-5.9,1.7-12.9-4.3-16.4
				C798.5,517,789.9,518.3,787.3,524.3L787.3,524.3z"/>
		</g>
	</g>
	<g>
		<g>
			<path d="M663,416.5c4,0.4,8,0.8,12,1.2c1.8,0.2,3.7,0.4,5.5,0.6c1.2,0.1,6.6,1.6,3.1-0.1c-1.4-1.4-2.9-2.9-4.3-4.3
				c-1.7-2.2-0.6-4.4-0.7-1c-0.1,1.5-0.1,3-0.2,4.5c0,2.7,0,5.4,0.3,8c0.5,6.7,1.6,13.4,3.9,19.7c3.9,10.5,10.3,19.5,19.5,25.9
				c9.4,6.6,20.6,7.6,31.7,8.4c11.4,0.8,23.5,0.1,33.6-5.8c18.1-10.6,23.5-33.9,25-53.3c1-12.2-4.3-23.9-16.3-28.2
				c-4.7-1.7-10-1.8-14.9-2c-6.5-0.2-12.9-0.3-19.4-0.3c-13.9-0.1-28-0.3-41.9,0.8c-7.2,0.6-14.4,2.3-19.6,7.6
				c-5.3,5.3-7.6,13.3-5.3,20.5c4.6,14.7,27.8,8.4,23.1-6.4c0.1,0.5-1,3.2-1.1,3c-0.1-0.2,3.4-0.8,2.9-0.7
				c5.5-0.7,11.2-0.5,16.7-0.6c10.6-0.2,21.3-0.3,31.9-0.1c5.1,0.1,10.2,0.1,15.2,0.4c2.1,0.1,3.2,0.1,4.6,0.6c-1-0.4-0.7-1.4,0,0
				c-0.5-1,0.2,1.9,0.2,0.8c0-1.2,0,1.7,0,1.9c0,1-0.1,1.9-0.1,2.8c-0.2,2.3,0.2-1.2-0.1,1c-0.5,4-1.3,8-2.2,12
				c-1.7,7.2-3.6,13.6-8.7,18.1c-4.7,4.2-12.7,4.5-19.7,4.3c-7.7-0.3-16.3-0.4-22.4-4.5c-5.5-3.7-9.4-10.4-11.2-17.5
				c-1.3-5.1-1.7-10.1-1.7-15.3c0-5.8,0.9-11.3-2.4-16.4c-4.2-6.6-11.7-6.7-18.6-7.4c-6.2-0.6-12.3-1.3-18.5-1.9
				c-6.5-0.7-12,6-12,12C651,411.5,656.5,415.8,663,416.5L663,416.5z"/>
		</g>
	</g>
	<g>
		<g>
			<path d="M694.4,416.9c3.7,16.8,5.3,35.5,23.4,42.7c9.1,3.7,16.5-6.8,14.8-14.8c-1.1-4.8-2.1-9.5-3.2-14.3c-0.5-2.2-1-4.4-1.5-6.7
				c-0.3-1.3-0.6-2.5-0.8-3.8c-0.6-2.1-0.7-2.5-0.1-1.3c-0.5,2-1.1,4-1.6,6.1c0.2-0.4,0.4-0.7,0.6-1.1c-1.4,1.4-2.9,2.9-4.3,4.3
				c-3.2,0.6-3.5,0.8-1.1,0.7c-1.5-0.2-2.6-0.8-3.4-1.9c-0.4-0.9-0.4-0.6,0.1,0.8c0.3,1.5,0.3,1.8,0.2,0.9
				c0.8,5.1,1.2,10.1,2.5,15.1c2.5,9.4,6.6,21.1,18.1,21.7c12.4,0.6,17.8-10.8,18.1-21.4c0.1-4.5-0.2-9.3-1.5-13.7
				c-0.7-2.4-1.7-4.8-2.9-6.9c-0.5-0.9-1.1-1.7-1.7-2.4c-2.4-3.6-2.6-3.2-0.5,1.1c-0.5,2-1.1,4-1.6,6.1c0.2-0.3,0.4-0.6,0.6-0.9
				c-1.4,1.4-2.9,2.9-4.3,4.3c-1.6,1,1,0,0.1,0c1.2-0.1,2.4-0.2,3.6-0.2c3.4,0,1.1,0.7,0.9-0.9c-0.1-0.6,0.2-0.1,0,0.4
				c-0.3,1,0.1,2.7,0,3.8c0,1.7-0.3,3.5-0.1,5.2c0.3,2.9-0.8,1,1.1-0.5c1.8-1,3.5-2.1,5.3-3.1c0.3,0,0.7,0,1-0.1
				c2,0.5,4,1.1,6.1,1.6c0.2,0.2,0.5,0.3,0.7,0.5c1,1.8,2.1,3.5,3.1,5.3c0.5,1.2-1.1,3.8,0.1,1c0.5-1.3,1-2.6,1.4-3.9
				c0.9-2.9,1.3-6,1.6-9.1c0.2-2.1,0.2-4.2,0.2-6.3c0-0.5,0.2-3.1,0.1-2.7c0,0.2-0.3,1-0.4,1.1c4.8-4.4,4.4-12.5,0-17
				c-4.8-4.8-12.2-4.4-17,0c-6.6,6.1-6.3,14-6.7,22.3c-0.4,8.4-6.2,15.2-1.2,23.7c5.7,9.7,19.6,9.5,25.6,0.3
				c4.1-6.2,3.7-15.8,3.2-23.1c-0.7-8.7-4.4-16.4-12.6-20.3c-6.9-3.2-15.6-3.1-22.9-1.3c-10.6,2.7-14.6,14.5-8.7,23.4
				c2.1,3.1,3.3,3.6,3.8,7.7c0-0.2,0,2.6,0,2.9c0,1,0,2-0.1,3c0.7-2.3,2.7-3.7,5.9-4.1c2,0.5,4,1.1,6.1,1.6c1.8,2.5,2.2,2.9,1.1,1
				c0.5,0.5,0.3,0-0.5-1.6c-0.8-2.2-1.5-4.6-2-6.9c-0.9-3.8-1.2-7.7-1.8-11.5c-1.4-9.4-7.2-17.3-17.1-18.9
				c-11.9-1.9-22.5,5.3-20.3,18.1c1.6,9.4,4.1,18.6,6.1,27.9c4.9-4.9,9.8-9.8,14.8-14.8c0.8,0.3-0.7-1.5-1-2.1
				c-0.9-2-1.3-4.3-1.8-6.5c-1.3-5.8-2.5-11.6-3.8-17.4c-1.4-6.3-8.8-10-14.8-8.4C696.3,403.9,693,410.6,694.4,416.9L694.4,416.9z"
				/>
		</g>
	</g>
	<g>
		<g>
			<path d="M873.3,374c-9.1-11-22.4-16.9-36.5-18c-6.5-0.5-12,5.9-12,12c0,6.9,5.5,11.5,12,12c7.7,0.6,14.4,4.8,19.5,11
				c4.1,5,12.7,4.3,17,0C878.2,386,877.5,379,873.3,374L873.3,374z"/>
		</g>
	</g>
	<g>
		<g>
			<path d="M841.7,381.7c15.4,0,15.5-24,0-24C826.2,357.7,826.2,381.7,841.7,381.7L841.7,381.7z"/>
		</g>
	</g>
	<g>
		<g>
			<path d="M839.7,381.7c15.4,0,15.5-24,0-24C824.2,357.7,824.2,381.7,839.7,381.7L839.7,381.7z"/>
		</g>
	</g>
	<g>
		<g>
			<path d="M833.7,379.7c15.4,0,15.5-24,0-24C818.2,355.7,818.2,379.7,833.7,379.7L833.7,379.7z"/>
		</g>
	</g>
	<g>
		<g>
			<path d="M833.7,379.7c15.4,0,15.5-24,0-24C818.2,355.7,818.2,379.7,833.7,379.7L833.7,379.7z"/>
		</g>
	</g>
	<g>
		<g>
			<path d="M833.7,379.7c15.4,0,15.5-24,0-24C818.2,355.7,818.2,379.7,833.7,379.7L833.7,379.7z"/>
		</g>
	</g>
	<g>
		<g>
			<path d="M833.7,379.7c15.4,0,15.5-24,0-24C818.2,355.7,818.2,379.7,833.7,379.7L833.7,379.7z"/>
		</g>
	</g>
	<g>
		<g>
			<path d="M831.7,379.7c15.4,0,15.5-24,0-24C816.2,355.7,816.2,379.7,831.7,379.7L831.7,379.7z"/>
		</g>
	</g>
	<g>
		<g>
			<path d="M837,379.7c15.4,0,15.5-24,0-24C821.6,355.7,821.5,379.7,837,379.7L837,379.7z"/>
		</g>
	</g>
	<g>
		<g>
			<path d="M835.7,381.7c15.4,0,15.5-24,0-24C820.2,357.7,820.2,381.7,835.7,381.7L835.7,381.7z"/>
		</g>
	</g>
	<g>
		<g>
			<path d="M845,381.7c15.4,0,15.5-24,0-24C829.6,357.7,829.5,381.7,845,381.7L845,381.7z"/>
		</g>
	</g>
	<g>
		<g>
			<path d="M862.3,391c15.4,0,15.5-24,0-24C846.9,367,846.9,391,862.3,391L862.3,391z"/>
		</g>
	</g>
	<g>
		<g>
			<path d="M863.7,395c15.4,0,15.5-24,0-24C848.2,371,848.2,395,863.7,395L863.7,395z"/>
		</g>
	</g>
	<g>
		<g>
			<path d="M855,389.7c0,0.2,0,0.4,0,0.7c-0.1,1.7,0.3,3.2,1,4.6c0.5,1.5,1.3,2.8,2.5,3.9c1.1,1.2,2.4,2,3.9,2.5
				c1.4,0.8,3,1.1,4.6,1c1.1-0.1,2.1-0.3,3.2-0.4c2-0.6,3.8-1.6,5.3-3.1c0.6-0.8,1.3-1.6,1.9-2.4c1.1-1.9,1.6-3.9,1.6-6.1
				c0-0.2,0-0.4,0-0.7c0.1-1.7-0.3-3.2-1-4.6c-0.5-1.5-1.3-2.8-2.5-3.9c-1.1-1.2-2.4-2-3.9-2.5c-1.4-0.8-3-1.1-4.6-1
				c-1.1,0.1-2.1,0.3-3.2,0.4c-2,0.6-3.8,1.6-5.3,3.1c-0.6,0.8-1.3,1.6-1.9,2.4C855.6,385.5,855,387.5,855,389.7L855,389.7z"/>
		</g>
	</g>
	<g>
		<g>
			<path d="M868.3,404.3c15.4,0,15.5-24,0-24C852.9,380.3,852.9,404.3,868.3,404.3L868.3,404.3z"/>
		</g>
	</g>
	<g>
		<g>
			<path d="M868.3,404.3c15.4,0,15.5-24,0-24C852.9,380.3,852.9,404.3,868.3,404.3L868.3,404.3z"/>
		</g>
	</g>
	<g>
		<g>
			<path d="M868.3,404.3c15.4,0,15.5-24,0-24C852.9,380.3,852.9,404.3,868.3,404.3L868.3,404.3z"/>
		</g>
	</g>
	<g>
		<g>
			<path d="M867.7,404.3c15.4,0,15.5-24,0-24C852.2,380.3,852.2,404.3,867.7,404.3L867.7,404.3z"/>
		</g>
	</g>
	<g>
		<g>
			<path d="M856.8,396.7c4.8,7.5,2.7,15.2,0.5,23.4c-4,15,18.8,21.2,23.1,6.4c1.5-5.2,2.2-10.7,1.8-16.1c-0.5-6.5-5.2-12-12-12
				c-6.1,0-12.5,5.5-12,12c0.2,3.5,0,6.4-1,9.7c7.7,2.1,15.4,4.3,23.1,6.4c3.8-14.3,5.4-28.8-2.9-41.9c-3.5-5.5-10.7-7.7-16.4-4.3
				C855.7,383.5,853.3,391.2,856.8,396.7L856.8,396.7z"/>
		</g>
	</g>
	<g>
		<g>
			<path d="M649.8,373.5c32.3,2.7,65.2-0.3,96.6-8.7c15.7-4.2,31.1-9.9,45.9-16.8c14.7-6.8,29-14.2,39-27.4
				c3.9-5.2,0.8-13.4-4.3-16.4c-6.2-3.6-12.5-0.9-16.4,4.3c-3.5,4.6-9.2,7.8-14.2,10.6c-6.1,3.4-12.3,6.4-18.6,9.3
				c-13.2,5.9-27.1,10.6-41.1,14.1c-28.4,7.2-57.6,9.4-86.8,7c-6.5-0.5-12,5.9-12,12C637.8,368.5,643.3,373,649.8,373.5L649.8,373.5
				z"/>
		</g>
	</g>
	<g>
		<g>
			<path d="M647,413.7c1.3,0,2.7,0,4,0c3.1,0,6.3-1.3,8.5-3.5c1.2-1.1,2-2.4,2.5-3.9c0.8-1.4,1.1-3,1-4.6c-0.1-3.1-1.2-6.3-3.5-8.5
				c-2.3-2.2-5.2-3.5-8.5-3.5c-1.3,0-2.7,0-4,0c-3.1,0-6.3,1.3-8.5,3.5c-1.2,1.1-2,2.4-2.5,3.9c-0.8,1.4-1.1,3-1,4.6
				c0.1,3.1,1.2,6.3,3.5,8.5C640.9,412.3,643.7,413.7,647,413.7L647,413.7z"/>
		</g>
	</g>
	<g>
		<g>
			<path d="M696.9,405.2c2.1,0.8-0.6-1.1-1.1-1.5c-1.7-1.6-3.5-3.2-5.5-4.5c-4.1-2.5-8.6-3.6-13.2-4.5c-9.9-1.9-19.9-2.7-30-2.4
				c-15.4,0.6-15.5,24.6,0,24c8.5-0.3,17,0.1,25.4,1.9c3.5,0.7,4.9,1.1,6.8,2.9c3.5,3.3,6.8,5.5,11.2,7.2c6,2.4,13.2-2.6,14.8-8.4
				C707.1,413.1,702.9,407.6,696.9,405.2L696.9,405.2z"/>
		</g>
	</g>
	<g>
		<g>
			<path d="M681,392.3c-7.1,0-14.1,0-21.2,0c-6.5,0-12,5.5-12,12c0,7,5.5,11.3,12,12c5.7,0.6,10.7-1.9,14.8-5.6c4.4-4,5-13.1,0-17
				c-9-7.1-17.7-5.8-27.6-1.3c-4.8,2.2-6.8,8.8-5.5,13.6c1.5,5.3,6.3,8.4,11.6,8.8c9.3,0.7,18.1-3.7,27.2,0
				c8,3.2,14.3,9.6,20.5,15.4c11.2,10.6,28.2-6.3,17-17c-8.9-8.4-18-16.4-29.5-21c-5.5-2.2-11.5-3.4-17.5-3.2
				c-6,0.2-11.7,2.2-17.7,1.7c2,7.5,4,14.9,6.1,22.4c-1,0.5,1.7-0.5,1.9-0.6c1.2-0.7,0.4,1.2-3.4-1.8c0-5.7,0-11.3,0-17
				c4.1-0.9,4.8-1.4,2.2-1.4c0,8,0,16,0,24c7.1,0,14.1,0,21.2,0C696.4,416.3,696.5,392.3,681,392.3L681,392.3z"/>
		</g>
	</g>
	<g>
		<g>
			<path d="M657,414.3c2.2-0.6,4.4-1.3,6.7-1.5c4.8-0.5,9-2.6,11-7.4c1.7-4.2,1.2-10-2.5-13.1c-11.6-9.9-23.9-3.3-35.8,2
				c5.5,5.5,10.9,10.9,16.4,16.4c-1.4,1.8,0.2,0.6,1.8,0.3c-1.1,0.2,2.4-0.2,2.4-0.2c0.9,0,1.9-0.1,2.8-0.1c4.8-0.1,9.5-0.2,13.9,2
				c11,5.6,21.5,12.5,31.5,19.7c5.3,3.8,13.4,0.9,16.4-4.3c3.5-6,1-12.6-4.3-16.4c-6.5-4.6-13.1-9-19.9-13.1
				c-6.8-4.1-14.2-8.9-22-10.6c-7.1-1.6-14.8-1.7-22-0.9c-9,1-15.8,4.2-21.4,11.5c-3.2,4.1-1.5,11.1,1.9,14.5c4,4,9.6,4.1,14.5,1.9
				c2.8-1.2,5.6-2.8,8.5-3.8c-0.9,0.3,1.1-0.3,1.1-0.3c2-1.5,2.2,2.6-2.9-1.7c2.8-6.8,5.7-13.7,8.5-20.5c-4.4,0.5-8.8,1.1-13.1,2.3
				C635.8,395.4,642.1,418.5,657,414.3L657,414.3z"/>
		</g>
	</g>
	<g>
		<g>
			<path d="M832.7,298.6c-23.3-20-52.2-30.6-81.4-38.8c-32.6-9.1-66-15.4-99.7-18.6c-6.5-0.6-12,6-12,12c0,7,5.5,11.4,12,12
				c30.9,2.9,61.5,9,91.4,17.3c25.6,7.1,52.2,15.6,72.7,33.2c4.9,4.2,12.1,4.8,17,0C837.1,311.2,837.7,302.8,832.7,298.6
				L832.7,298.6z"/>
		</g>
	</g>
	<g>
		<g>
			<path d="M819,320.3c1.3,0.4,2.6,0.8,3.9,1.3c0.5,0.2,3.3,1.5,1,0.3c2.2,1,4.3,2.1,6.4,3.3c5.4,3.2,13.4,1.4,16.4-4.3
				c3-5.8,1.5-13-4.3-16.4c-5.3-3.1-11.1-5.6-17-7.4c-6-1.8-13.3,2.2-14.8,8.4C809.2,312,812.6,318.3,819,320.3L819,320.3z"/>
		</g>
	</g>
	<g>
		<g>
			<path d="M841.9,303.7c-4.9-3.3-9.9-6.5-14.8-9.8c-5.2-3.5-13.5-1.2-16.4,4.3c-3.2,6-1.3,12.7,4.3,16.4c4.9,3.3,9.9,6.5,14.8,9.8
				c5.2,3.5,13.5,1.2,16.4-4.3C849.4,314.1,847.5,307.5,841.9,303.7L841.9,303.7z"/>
		</g>
	</g>
	<g>
		<g>
			<path d="M812.4,312.1c1.6,0.4,3.2,0.9,4.8,1.4c1.4,0.5,1.6,0.6,0.6,0.2c0.6,0.3,1.1,0.5,1.7,0.8c1.3,0.7,2.5,1.5,3.8,2.2
				c1.2,0.9,1.4,1,0.6,0.3c0.7,0.5,1.3,1.1,1.9,1.6c4.7,4.1,12.4,5,17,0c4.2-4.5,5-12.5,0-17c-7-6.1-15-10.6-24.1-12.8
				c-6.1-1.4-13.3,1.9-14.8,8.4C802.7,303.5,805.9,310.6,812.4,312.1L812.4,312.1z"/>
		</g>
	</g>
	<g>
		<g>
			<path d="M788.3,298.2c8.8,3.6,21.4,5.8,26.8,14.4c8.2,13.1,29,1,20.7-12.1c-9.5-15.1-25.7-19-41.2-25.4c-6-2.5-13.2,2.7-14.8,8.4
				C778,290.3,782.2,295.7,788.3,298.2L788.3,298.2z"/>
		</g>
	</g>
	<g>
		<g>
			<path d="M629.6,260.3c0.3,30,1.3,59.9,2.8,89.9c0.7,13.1,20,16.8,23.6,3.2c7.1-26.8,10.6-54.5,10.3-82.2
				c-7.9,1.1-15.7,2.1-23.6,3.2c4.3,24.7,6.5,49.6,6.9,74.6c0.1,6.5,5.4,12,12,12c7.1,0,11.3-5.5,12-12c3-27.1,14.7-53.2,6.5-80.6
				c-7.7,2.1-15.4,4.3-23.1,6.4c9.3,22.5,12.7,47.1,8.5,71.2c-1.1,6.4,1.7,12.9,8.4,14.8c6.4,1.8,12.9-2.2,14.8-8.4
				c4.9-16.3,8.7-32.9,11.1-49.8c2-13.9,5.1-33.4-10.4-41.1c-5.8-2.9-13-1.6-16.4,4.3c-3.6,6.2-0.9,12.5,4.3,16.4
				c1.8,1.4,3.4,5,4.3,7.9c1.6,5,2.5,10.3,3.1,15.4c1.6,12.7,1.4,25.6-0.1,38.4c-0.7,5.8,5.1,11.2,10.4,11.8
				c6.1,0.7,11.2-2.8,13.2-8.6c8.3-24.1,9.8-49.7,5.4-74.8c-7.7,2.1-15.4,4.3-23.1,6.4c6.6,18.4,14.5,38.8,11.3,58.7
				c-1,6.4,1.7,12.9,8.4,14.8c6.9,1.9,12.2-2.4,14.8-8.4c9.2-21.9,10.8-46.2,5.7-69.3c-6.7,3.9-13.4,7.8-20.1,11.7
				c6.5,8,13.5,16.4,17,26.2c0.6,1.6,1.6,5.1,1.6,5.7c0.2,1.9,0.1,3.8-0.3,4.6c-0.1,0.1-1,0.9-2.4,2.1c-2.1,1.9-4.1,4-5.3,6.7
				c-2.8,6.6-1.2,15.9,7.2,17.6c15.2,3.1,29.1-3.4,42.7-9.5c12.3-5.5,24.1-11.8,35.6-18.9c8.5-5.3,7.4-19.3-2.9-21.9
				c-20.5-5.2-40.9-11-61.1-17.2c1,7.3,1.9,14.6,2.9,21.9c-1.3,0.1-2.7,0.2-4,0.3c-0.3-0.4-0.2-0.4,0.5,0.1c-0.3-0.4,1.5,1,1.2,0.8
				c1.7,1.3,3.2,3.2,4.5,4.9c2.8,3.8,4.9,8,6.3,12.5c1.8-4.5,3.7-9,5.5-13.6c-1.6,0.8-3.1,1.1-5,1.4c4.5,1.8,9,3.7,13.6,5.5
				c-4.4-10.2-8.6-20.6-13.4-30.7c-5.5-11.5-15.4-18-28.2-16.1c-6.4,0.9-9.9,9.1-8.4,14.8c1.9,6.9,8.3,9.3,14.8,8.4
				c-4.2,0.6-1.8-0.8-1.3,0.7c0,0.1,1,1.6,1.3,2.2c1.8,3.3,3.2,6.9,4.7,10.4c3.3,7.5,6.5,15,9.8,22.5c2.3,5.2,8.7,6.3,13.6,5.5
				c3.8-0.6,7.3-2,10.7-3.8c4.5-2.4,7-8.7,5.5-13.6c-5.3-16.9-22.5-44.3-43.7-33c-9.4,5-6.6,19,2.9,21.9c20.2,6.3,40.6,12,61.1,17.2
				c-1-7.3-1.9-14.6-2.9-21.9c-9.9,6.1-20,11.7-30.6,16.6c-4.6,2.1-9.2,4.2-14,6c-4.6,1.8-10.2,4.4-15.2,3.3
				c2.4,5.9,4.8,11.8,7.2,17.6c0.9-2.1-0.5,0.1,1-1.4c1.1-1,2.3-1.9,3.3-3c2.7-2.9,4.5-6.3,5.7-10.1c2.1-6.8,1.3-14.7-0.8-21.4
				c-4.6-14.7-14.1-26.7-23.7-38.4c-3.3-4.1-10.3-4.4-14.5-1.9c-4.7,2.8-6.7,8.3-5.5,13.6c4.2,19.1,1.8,38.5-5.7,56.5
				c7.7,2.1,15.4,4.3,23.1,6.4c4-24.9-3-48.2-11.3-71.4c-5.2-14.6-25.8-8.8-23.1,6.4c3.7,20.8,1.5,42.1-5.4,62.1
				c7.9,1.1,15.7,2.1,23.6,3.2c1.8-15.8,1.3-31.4-1.1-47.1c-2.1-14-6.5-26.5-18.2-35.3c-4,6.9-8.1,13.8-12.1,20.7
				c2.2,1.1,0.4-0.3-0.1-0.6c-0.1-0.3-0.1-0.5-0.2-0.8c0.2,0.6,0.4,1.1,0.5,1.7c0.3,1.1,0.1-0.9,0.2,1.1c0.1,1.3,0,2.6,0,3.8
				c-0.3,6-1.4,12.1-2.4,18c-2.3,13.7-5.6,27.2-9.6,40.5c7.7,2.1,15.4,4.3,23.1,6.4c4.9-28.3,2.5-57.4-8.5-84
				c-2.5-6-8-10.2-14.8-8.4c-6.2,1.7-10.2,8.5-8.4,14.8c3.4,11.4,2.2,23.1,0,34.6c-2.6,13.2-5.9,26.2-7.4,39.7c8,0,16,0,24,0
				c-0.5-27.2-3.1-54.2-7.8-81c-1-5.8-7.8-9.4-13.2-8.6c-5.8,0.9-10.5,5.7-10.4,11.8c0.2,25.7-2.9,51-9.5,75.8
				c7.9,1.1,15.7,2.1,23.6,3.2c-1.6-29.9-2.5-59.9-2.8-89.9C653.4,244.9,629.4,244.9,629.6,260.3L629.6,260.3z"/>
		</g>
	</g>
	<g>
		<g>
			<path d="M640.7,263.5c0.3,0.2,0.7,0.5,1,0.7c-0.8-0.6-1.6-1.3-2.4-1.9c0.7,0.5,1.3,1.1,1.9,1.8c1.1,1.2,2.4,2,3.9,2.5
				c1.4,0.8,3,1.1,4.6,1c1.7,0.1,3.2-0.3,4.6-1c1.5-0.5,2.8-1.3,3.9-2.5c0.6-0.8,1.3-1.6,1.9-2.4c1.1-1.9,1.6-3.9,1.6-6.1
				c-0.1-1.1-0.3-2.1-0.4-3.2c-0.6-2-1.6-3.8-3.1-5.3c-0.5-0.5-0.9-1-1.4-1.4c-1.2-1.1-2.5-2.1-3.9-3c-1.4-0.9-2.9-1.4-4.5-1.4
				c-1.6-0.4-3.2-0.3-4.8,0.2c-1.6,0.4-2.9,1.1-4.1,2.1c-1.3,0.8-2.3,2-3.1,3.4c-0.4,1-0.8,1.9-1.2,2.9c-0.6,2.1-0.6,4.3,0,6.4
				c0.4,1,0.8,1.9,1.2,2.9C637.4,261,638.9,262.5,640.7,263.5L640.7,263.5z"/>
		</g>
	</g>
	<g>
		<g>
			<path d="M652.6,253c-0.2-0.4-0.3-0.7-0.5-1.1c0.4,1,0.8,1.9,1.2,2.9c-0.4-1-0.6-2-0.8-3c0.1,1.1,0.3,2.1,0.4,3.2
				c-0.1-0.5-0.1-1-0.1-1.6c0-3.1-1.3-6.3-3.5-8.5c-2.1-2.1-5.5-3.6-8.5-3.5c-3.1,0.1-6.3,1.2-8.5,3.5c-2.1,2.3-3.6,5.2-3.5,8.5
				c0.1,4.2,1.1,8,3,11.7c1.3,2.6,4.4,4.8,7.2,5.5c2.9,0.8,6.7,0.4,9.2-1.2c2.6-1.7,4.8-4.1,5.5-7.2C654.6,259,654.1,256,652.6,253
				L652.6,253z"/>
		</g>
	</g>
	<g>
		<g>
			<path d="M633,350.3c0,3.3,0,6.7,0,10c0,6.3,5.5,12.3,12,12c6.5-0.3,12-5.3,12-12c0-3.3,0-6.7,0-10c0-6.3-5.5-12.3-12-12
				C638.5,338.6,633,343.6,633,350.3L633,350.3z"/>
		</g>
	</g>
	<g>
		<g>
			<path d="M823,316.3c15.4,0,15.5-24,0-24C807.6,292.3,807.5,316.3,823,316.3L823,316.3z"/>
		</g>
	</g>
	<g>
		<g>
			<path d="M823,314.3c15.4,0,15.5-24,0-24C807.6,290.3,807.5,314.3,823,314.3L823,314.3z"/>
		</g>
	</g>
</g>
<g id="Слой_3">
	<g>
		<g>
			<path d="M454.8,323c0,13.2,0,26.3,0,39.5c0,15.4,24,15.5,24,0c0-13.2,0-26.3,0-39.5C478.8,307.6,454.8,307.5,454.8,323L454.8,323
				z"/>
		</g>
	</g>
	<g>
		<g>
			<path d="M461.7,356c-11.8-0.3-24.2,5.8-32.8,13.8c-4.4,4.2-7.3,9.8-8.8,15.6c-1.1,4.3-1.4,10.3-2.9,13.5
				c-2.8,5.8-1.6,13,4.3,16.4c5.2,3.1,13.6,1.6,16.4-4.3c2-4.3,3.4-8.4,4.2-13c0.4-2.1,0.7-4.2,1.2-6.2c0.4-1.7,0.6-2.7,1.2-3.5
				c3.2-4.6,12.1-8.3,17.2-8.2C477.2,380.3,477.2,356.3,461.7,356L461.7,356z"/>
		</g>
	</g>
	<g>
		<g>
			<path d="M416.6,407c-0.2,8-0.1,16.4,2.4,24.1c2.2,7.1,6.2,13.3,10.4,19.4c4.5,6.4,9.5,12.3,16.3,16.3c6.7,3.9,14.3,6,21.7,7.9
				c15,3.7,21.4-19.4,6.4-23.1c-4.9-1.2-10-2.3-14.5-4.6c-4.4-2.3-7.3-5.8-10-9.8c-2.8-4.1-5.9-8.3-7.3-13.1
				c-1.6-5.5-1.4-11.2-1.3-16.9C441.1,391.5,417.1,391.5,416.6,407L416.6,407z"/>
		</g>
	</g>
	<g>
		<g>
			<path d="M461.1,469.1c12.9,29.6,27.2,58.5,41,87.7c2.8,5.9,11.2,7.4,16.4,4.3c6-3.5,7.1-10.5,4.3-16.4
				c-13.8-29.1-28.1-58.1-41-87.7c-2.6-5.9-11.3-7.3-16.4-4.3C459.2,456.3,458.5,463.1,461.1,469.1L461.1,469.1z"/>
		</g>
	</g>
	<g>
		<g>
			<path d="M490.8,536.4c7.8,17.1,17.2,33.4,27.9,48.9c10.1,14.7,20.9,29.2,33.3,42c25.7,26.7,58.9,43,95.8,46.5
				c6.5,0.6,12-5.9,12-12c0-7-5.5-11.4-12-12c-31.8-3-59.7-18.8-81.2-41.9c-22.6-24.3-41.4-53.4-55-83.5c-2.7-5.9-11.2-7.3-16.4-4.3
				C489,523.5,488.1,530.5,490.8,536.4L490.8,536.4z"/>
		</g>
	</g>
	<g>
		<g>
			<path d="M635.8,392.5c-4.9,0.5-9.8,1-14.8,1.5c-5.9,0.6-12.8,0.3-18,3.5c-10.2,6.2-5.9,19.9-7.1,29.7c-1,7.6-3.8,15.4-8.8,20.7
				c-5.2,5.4-11,6.6-18.9,7.3c-7.7,0.6-16.5,1.7-23.3-1.5c-5.7-2.6-8.6-8.2-10.5-14.1c-1.2-3.7-2-7.4-2.7-11.2
				c-0.7-3.9-1.3-7-1.4-10.2c-0.1-2.3-0.2-2.2,0.3-3.6c-0.5,1.3,0.2-0.6,0.4-0.7c-0.1,0.1-0.1,0.6-0.3,0.7c0.1,0,1.6-0.3,2.9-0.3
				c2.6-0.2,5.3-0.2,7.9-0.3c12.3-0.3,24.5-0.3,36.8-0.1c5.8,0.1,11.6,0.2,17.4,0.5c0.5,0,6,0.9,6.1,0.8c-0.6,0.4-1.3-2.4-1.2-3
				c-4.6,14.8,18.5,21.1,23.1,6.4c4.3-13.9-7.2-25.5-20.2-27.5c-12.1-1.8-24.8-1.3-36.9-1.4c-11.7-0.1-23.6-0.4-35.3,0.7
				c-13.7,1.3-23.6,9.5-25,23.6c-0.9,9.2,1.5,19.6,3.8,28.5c2.6,9.6,7,19.6,14.7,26.3c9,7.9,20.3,10.8,32.1,10.9
				c11,0.1,23.3-0.6,33.4-5.2c10.7-4.8,19.2-14.3,23.9-24.9c3.1-6.9,4.7-14,5.5-21.5c0.3-3,0.5-5.9,0.5-8.9c0-1.5,0-3-0.1-4.5
				c0-0.9-0.1-1.8-0.1-2.7c0-2.2-0.2-1.5-0.7,1.9c-1.4,1.4-2.9,2.9-4.3,4.3c-3.4,1.7,1.1,0.3,2.2,0.2c2.2-0.2,4.3-0.4,6.5-0.7
				c4-0.4,8-0.8,12-1.2c6.4-0.7,12-5,12-12C647.8,398.5,642.3,391.8,635.8,392.5L635.8,392.5z"/>
		</g>
	</g>
	<g>
		<g>
			<path d="M581.2,410.5c-1.3,5.8-2.5,11.6-3.8,17.4c-0.5,2.1-0.9,4.4-1.8,6.4c-0.3,0.6-1.7,2.5-1,2.2c4.9,4.9,9.8,9.8,14.8,14.8
				c2.1-9.3,4.6-18.6,6.1-27.9c2.1-12.8-8.5-20-20.3-18.1c-9.9,1.6-15.7,9.4-17.1,18.9c-0.6,3.9-0.9,7.7-1.8,11.5
				c-0.5,2.3-1.2,4.7-2,6.9c-0.8,1.6-1,2.1-0.5,1.6c-1.1,1.8-0.7,1.5,1.1-1c2-0.5,4-1.1,6.1-1.6c3.2,0.4,5.2,1.8,5.9,4.1
				c-0.1-1-0.1-2-0.1-3c0-0.5,0.1-3.2,0-2.9c0.4-3.1,1.3-4.4,2.9-6.4c6.6-9,3.9-21.6-7.8-24.6c-7.3-1.9-16-2-22.9,1.3
				c-8.1,3.8-12,11.6-12.6,20.3c-0.5,7.3-0.9,16.7,3.2,23.1c5.9,9.3,20,9.3,25.6-0.3c4.8-8.2-0.5-14.8-1.2-22.9
				c-0.8-8.6,0.3-16.6-6.7-23.1c-4.8-4.4-12.2-4.7-17,0c-4.4,4.4-4.8,12.6,0,17c-0.1-0.1-0.3-0.8-0.4-0.9c-0.3-1.1,0,1.4,0,1.7
				c0,2.3,0,4.7,0.2,7c0.3,2.7,0.7,5.6,1.4,8.2c0.4,1.4,0.9,2.7,1.4,4c0.2,0.5,0.4,1,0.5,1.5c0.5,1.6,0.4,1-0.1-1.8
				c1-1.8,2.1-3.5,3.1-5.3c0.2-0.2,0.5-0.3,0.7-0.5c2-0.5,4-1.1,6.1-1.6c0.3,0,0.7,0,1,0.1c1.8,1,3.5,2.1,5.3,3.1
				c2,1.6,0.5,3.7,1.1,0.5c0.2-1.3-0.1-3-0.1-4.3c0-1.2,0-5.1,0-5.1c0.8,1-3.2,0.7,0.1,0.9c1.4,0.1,2.9,0.1,4.3,0.2
				c-1.2-0.1,1.8,1.1,0.1,0c-1.4-1.4-2.9-2.9-4.3-4.3c0.2,0.3,0.4,0.6,0.6,0.9c-0.5-2-1.1-4-1.6-6.1c2-4.3,1.8-4.7-0.5-1.1
				c-0.6,0.8-1.2,1.6-1.7,2.4c-1.3,2.1-2.2,4.6-2.9,6.9c-1.3,4.3-1.7,9.2-1.5,13.7c0.3,10.6,5.7,22,18.1,21.4
				c11.5-0.6,15.6-12.3,18.1-21.7c1.3-5,1.7-10,2.5-15.1c-0.1,0.9-0.1,0.6,0.2-0.9c0.5-1.4,0.5-1.7,0.1-0.8
				c-0.8,1.1-1.9,1.7-3.4,1.9c2.5,0.2,2.1,0-1.1-0.7c-1.4-1.4-2.9-2.9-4.3-4.3c0.2,0.4,0.4,0.7,0.6,1.1c-0.5-2-1.1-4-1.6-6.1
				c0.5-1.2,0.5-0.8-0.1,1.3c-0.3,1.3-0.6,2.5-0.8,3.8c-0.5,2.2-1,4.4-1.5,6.7c-1.1,4.8-2.1,9.5-3.2,14.3c-1.8,8,5.7,18.4,14.8,14.8
				c18-7.3,19.7-25.9,23.4-42.7c1.4-6.3-1.9-13-8.4-14.8C590,400.5,582.6,404.2,581.2,410.5L581.2,410.5z"/>
		</g>
	</g>
	<g>
		<g>
			<path d="M442.4,391c5.1-6.1,11.9-10.4,19.5-11c6.5-0.5,12-5.1,12-12c0-6.1-5.5-12.5-12-12c-14.1,1.1-27.4,7-36.5,18
				c-4.1,5-4.9,12.1,0,17C429.7,395.2,438.3,396,442.4,391L442.4,391z"/>
		</g>
	</g>
	<g>
		<g>
			<path d="M457.1,381.7c15.4,0,15.5-24,0-24C441.6,357.7,441.6,381.7,457.1,381.7L457.1,381.7z"/>
		</g>
	</g>
	<g>
		<g>
			<path d="M459.1,381.7c15.4,0,15.5-24,0-24C443.6,357.7,443.6,381.7,459.1,381.7L459.1,381.7z"/>
		</g>
	</g>
	<g>
		<g>
			<path d="M465.1,379.7c15.4,0,15.5-24,0-24C449.6,355.7,449.6,379.7,465.1,379.7L465.1,379.7z"/>
		</g>
	</g>
	<g>
		<g>
			<path d="M465.1,379.7c15.4,0,15.5-24,0-24C449.6,355.7,449.6,379.7,465.1,379.7L465.1,379.7z"/>
		</g>
	</g>
	<g>
		<g>
			<path d="M465.1,379.7c15.4,0,15.5-24,0-24C449.6,355.7,449.6,379.7,465.1,379.7L465.1,379.7z"/>
		</g>
	</g>
	<g>
		<g>
			<path d="M465.1,379.7c15.4,0,15.5-24,0-24C449.6,355.7,449.6,379.7,465.1,379.7L465.1,379.7z"/>
		</g>
	</g>
	<g>
		<g>
			<path d="M467.1,379.7c15.4,0,15.5-24,0-24C451.6,355.7,451.6,379.7,467.1,379.7L467.1,379.7z"/>
		</g>
	</g>
	<g>
		<g>
			<path d="M461.8,379.7c15.4,0,15.5-24,0-24C446.3,355.7,446.3,379.7,461.8,379.7L461.8,379.7z"/>
		</g>
	</g>
	<g>
		<g>
			<path d="M463.1,381.7c15.4,0,15.5-24,0-24C447.6,357.7,447.6,381.7,463.1,381.7L463.1,381.7z"/>
		</g>
	</g>
	<g>
		<g>
			<path d="M453.8,381.7c15.4,0,15.5-24,0-24C438.3,357.7,438.3,381.7,453.8,381.7L453.8,381.7z"/>
		</g>
	</g>
	<g>
		<g>
			<path d="M436.4,391c15.4,0,15.5-24,0-24C421,367,421,391,436.4,391L436.4,391z"/>
		</g>
	</g>
	<g>
		<g>
			<path d="M435.1,395c15.4,0,15.5-24,0-24C419.6,371,419.6,395,435.1,395L435.1,395z"/>
		</g>
	</g>
	<g>
		<g>
			<path d="M419.8,389.7c0,0.2,0,0.4,0,0.7c-0.1,1.7,0.3,3.2,1,4.6c0.5,1.5,1.3,2.8,2.5,3.9c1.1,1.2,2.4,2,3.9,2.5
				c1.4,0.8,3,1.1,4.6,1c1.1-0.1,2.1-0.3,3.2-0.4c2-0.6,3.8-1.6,5.3-3.1c0.6-0.8,1.3-1.6,1.9-2.4c1.1-1.9,1.6-3.9,1.6-6.1
				c0-0.2,0-0.4,0-0.7c0.1-1.7-0.3-3.2-1-4.6c-0.5-1.5-1.3-2.8-2.5-3.9c-1.1-1.2-2.4-2-3.9-2.5c-1.4-0.8-3-1.1-4.6-1
				c-1.1,0.1-2.1,0.3-3.2,0.4c-2,0.6-3.8,1.6-5.3,3.1c-0.6,0.8-1.3,1.6-1.9,2.4C420.3,385.5,419.8,387.5,419.8,389.7L419.8,389.7z"
				/>
		</g>
	</g>
	<g>
		<g>
			<path d="M430.4,404.3c15.4,0,15.5-24,0-24C415,380.3,415,404.3,430.4,404.3L430.4,404.3z"/>
		</g>
	</g>
	<g>
		<g>
			<path d="M430.4,404.3c15.4,0,15.5-24,0-24C415,380.3,415,404.3,430.4,404.3L430.4,404.3z"/>
		</g>
	</g>
	<g>
		<g>
			<path d="M430.4,404.3c15.4,0,15.5-24,0-24C415,380.3,415,404.3,430.4,404.3L430.4,404.3z"/>
		</g>
	</g>
	<g>
		<g>
			<path d="M431.1,404.3c15.4,0,15.5-24,0-24C415.6,380.3,415.6,404.3,431.1,404.3L431.1,404.3z"/>
		</g>
	</g>
	<g>
		<g>
			<path d="M421.2,384.6c-8.4,13.1-6.7,27.5-2.9,41.9c7.7-2.1,15.4-4.3,23.1-6.4c-1-3.4-1.2-6.2-1-9.7c0.5-6.5-5.8-12-12-12
				c-6.9,0-11.5,5.5-12,12c-0.4,5.4,0.3,10.9,1.8,16.1c4.3,14.8,27.1,8.6,23.1-6.4c-2.2-8.2-4.3-15.9,0.5-23.4
				c3.5-5.5,1.1-13.2-4.3-16.4C431.9,376.9,424.7,379.1,421.2,384.6L421.2,384.6z"/>
		</g>
	</g>
	<g>
		<g>
			<path d="M649,349.5c-29.2,2.4-58.4,0.2-86.8-7c-13.8-3.5-27.4-8-40.3-13.8c-6.6-2.9-13.1-6.1-19.4-9.6c-5-2.8-10.6-5.9-14.2-10.6
				c-3.9-5.1-10.3-7.9-16.4-4.3c-5.1,3-8.3,11.2-4.3,16.4c9.8,12.9,23.8,20.3,38.2,27c15,7,30.6,12.8,46.7,17.1
				c31.3,8.4,64.2,11.5,96.6,8.7c6.5-0.5,12-5.1,12-12C661,355.5,655.5,349,649,349.5L649,349.5z"/>
		</g>
	</g>
	<g>
		<g>
			<path d="M651.8,389.7c-1.3,0-2.7,0-4,0c-3.1,0-6.3,1.3-8.5,3.5c-1.2,1.1-2,2.4-2.5,3.9c-0.8,1.4-1.1,3-1,4.6
				c0.1,3.1,1.2,6.3,3.5,8.5c2.3,2.2,5.2,3.5,8.5,3.5c1.3,0,2.7,0,4,0c3.1,0,6.3-1.3,8.5-3.5c1.2-1.1,2-2.4,2.5-3.9
				c0.8-1.4,1.1-3,1-4.6c-0.1-3.1-1.2-6.3-3.5-8.5C657.9,391,655,389.7,651.8,389.7L651.8,389.7z"/>
		</g>
	</g>
	<g>
		<g>
			<path d="M608.3,428.3c4.2-1.7,7.4-3.7,10.7-6.8c2.4-2.2,3.4-2.6,7.3-3.4c8.4-1.8,16.9-2.2,25.4-1.9c15.4,0.6,15.4-23.4,0-24
				c-10.1-0.4-20.1,0.5-30,2.4c-4.6,0.9-9.2,2.1-13.2,4.5c-2,1.2-3.8,2.9-5.5,4.5c-0.5,0.4-3.2,2.4-1.1,1.5c-6,2.4-10.2,8-8.4,14.8
				C595.1,425.7,602.2,430.7,608.3,428.3L608.3,428.3z"/>
		</g>
	</g>
	<g>
		<g>
			<path d="M617.8,416.3c7.1,0,14.1,0,21.2,0c0-8,0-16,0-24c-2.6,0.1-1.9,0.5,2.2,1.4c0,5.7,0,11.3,0,17c-1.2,0.6-2.5,1.1-3.7,1.7
				c-0.6-0.1-0.6-0.1,0.3,0.1c0.2,0.1,2.4,0.8,1.9,0.6c2-7.5,4-14.9,6.1-22.4c-6,0.4-11.7-1.5-17.7-1.7c-5.9-0.2-12,1-17.5,3.2
				c-11.5,4.6-20.6,12.6-29.5,21c-11.2,10.6,5.8,27.6,17,17c6.2-5.8,12.5-12.2,20.5-15.4c9.1-3.7,17.8,0.7,27.2,0
				c5.3-0.4,10.1-3.5,11.6-8.8c1.3-4.7-0.7-11.4-5.5-13.6c-9.8-4.5-18.6-5.7-27.6,1.3c-5,3.9-4.4,13,0,17c4.1,3.7,9.1,6.2,14.8,5.6
				c6.4-0.7,12-5,12-12c0-6.5-5.5-12-12-12c-7.1,0-14.1,0-21.2,0C602.3,392.3,602.3,416.3,617.8,416.3L617.8,416.3z"/>
		</g>
	</g>
	<g>
		<g>
			<path d="M648.2,391.1c-4.3-1.2-8.6-1.9-13.1-2.3c2.8,6.8,5.7,13.7,8.5,20.5c-1.3,0.5-2.6,1.1-3.8,1.6c-0.7-0.2-0.6-0.2,0.2,0
				c0.2,0.1,2.5,0.7,1.8,0.4c2.9,1,5.7,2.5,8.5,3.8c5,2.2,10.5,2.2,14.5-1.9c3.4-3.4,5.1-10.4,1.9-14.5c-5.4-7-11.9-10.4-20.7-11.4
				c-7.4-0.9-15.3-0.8-22.7,0.8c-7.6,1.7-14.6,6.3-21.2,10.2c-7.1,4.2-14,8.8-20.7,13.6c-5.3,3.8-7.8,10.4-4.3,16.4
				c3,5.2,11.1,8.1,16.4,4.3c10-7.2,20.5-14.1,31.5-19.7c4.1-2.1,8.5-2.1,13.1-2c2,0,4.9,0.1,6.2,0.3c0.9,0.2,3,1.7,1.6-0.3
				c5.5-5.5,10.9-10.9,16.4-16.4c-11.9-5.3-24.2-11.9-35.8-2c-3.6,3.1-4.3,9-2.5,13.1c2.1,4.7,6,6.9,11,7.4c2.3,0.2,4.5,0.9,6.7,1.5
				C656.7,418.5,663,395.4,648.2,391.1L648.2,391.1z"/>
		</g>
	</g>
	<g>
		<g>
			<path d="M483,315.6c20.5-17.6,47.1-26.1,72.7-33.2c29.9-8.3,60.5-14.3,91.4-17.3c6.5-0.6,12-5.1,12-12c0-6-5.5-12.6-12-12
				c-33.7,3.2-67.1,9.5-99.7,18.6c-29.2,8.2-58.1,18.8-81.4,38.8c-4.9,4.2-4.3,12.6,0,17C470.9,320.4,478,319.8,483,315.6L483,315.6
				z"/>
		</g>
	</g>
	<g>
		<g>
			<path d="M473.3,297.1c-5.9,1.8-11.7,4.3-17,7.4c-5.4,3.2-7.8,11-4.3,16.4c3.5,5.4,10.6,7.7,16.4,4.3c2.1-1.2,4.2-2.3,6.4-3.3
				c-2.4,1.2,0.6-0.2,1-0.3c1.3-0.5,2.6-0.9,3.9-1.3c6-1.8,10.4-8.5,8.4-14.8C486.1,299.4,479.8,295.2,473.3,297.1L473.3,297.1z"/>
		</g>
	</g>
	<g>
		<g>
			<path d="M469,324.5c4.9-3.3,9.9-6.5,14.8-9.8c5.2-3.5,8-10.8,4.3-16.4c-3.4-5.2-10.8-8-16.4-4.3c-4.9,3.3-9.9,6.5-14.8,9.8
				c-5.2,3.5-8,10.8-4.3,16.4C455.9,325.4,463.4,328.2,469,324.5L469,324.5z"/>
		</g>
	</g>
	<g>
		<g>
			<path d="M479.9,289c-9.1,2.1-17.1,6.6-24.1,12.8c-4.7,4.2-4.6,12.8,0,17c5,4.6,11.9,4.4,17,0c0.6-0.6,1.3-1.1,1.9-1.6
				c-0.7,0.6-0.5,0.5,0.6-0.3c1.3-0.7,2.5-1.5,3.8-2.2c0.6-0.3,1.1-0.6,1.7-0.8c-0.9,0.4-0.7,0.3,0.6-0.2c1.6-0.5,3.2-1,4.8-1.4
				c6.1-1.4,10.3-8.8,8.4-14.8C492.6,291,486.5,287.4,479.9,289L479.9,289z"/>
		</g>
	</g>
	<g>
		<g>
			<path d="M504.1,275c-15.5,6.4-31.7,10.3-41.2,25.4c-8.2,13.1,12.5,25.2,20.7,12.1c5.4-8.7,18-10.8,26.8-14.4
				c6-2.5,10.3-8,8.4-14.8C517.3,277.8,510.1,272.6,504.1,275L504.1,275z"/>
		</g>
	</g>
	<g>
		<g>
			<path d="M645.1,260.3c-0.3,30-1.3,59.9-2.8,89.9c7.9-1.1,15.7-2.1,23.6-3.2c-6.6-24.8-9.7-50.1-9.5-75.8
				c0-5.9-4.6-11.1-10.4-11.8c-5.4-0.6-12.1,2.6-13.2,8.6c-4.6,26.8-7.3,53.8-7.8,81c8,0,16,0,24,0c-1.5-13.4-4.8-26.4-7.4-39.7
				c-2.3-11.5-3.4-23.2,0-34.6c1.8-6.2-2.2-13.1-8.4-14.8c-6.9-1.9-12.3,2.4-14.8,8.4c-11,26.6-13.5,55.7-8.5,84
				c7.7-2.1,15.4-4.3,23.1-6.4c-4-13.3-7.3-26.8-9.6-40.5c-1-5.9-2.1-12-2.4-18c-0.1-1.1-0.1-2.1,0-3.2c0-0.7,0.4-2.8,0.1-1.2
				c0.1-0.6,0.3-1.2,0.5-1.7c0.3-0.8,0.2-0.8,0,0.2c-0.6,0.4-2.4,1.7-0.1,0.6c-4-6.9-8.1-13.8-12.1-20.7
				c-11.6,8.8-16,21.3-18.2,35.3c-2.4,15.7-2.9,31.4-1.1,47.1c7.9-1.1,15.7-2.1,23.6-3.2c-6.9-19.9-9-41.2-5.4-62.1
				c2.7-15.2-17.9-21.1-23.1-6.4c-8.3,23.2-15.3,46.6-11.3,71.4c7.7-2.1,15.4-4.3,23.1-6.4c-7.5-18-9.9-37.4-5.7-56.5
				c1.1-5.2-0.8-10.8-5.5-13.6c-4.3-2.5-11.2-2.2-14.5,1.9c-9.5,11.7-19.2,23.8-23.7,38.4c-2,6.5-2.9,14.1-1,20.8
				c1,3.8,2.9,7.3,5.4,10.2c1,1.2,2.1,2.2,3.3,3.1c0.5,0.4,1,0.8,1.4,1.2c-0.6-0.9-0.5-0.7,0.1,0.6c2.4-5.9,4.8-11.8,7.2-17.6
				c-4.8,1-10-1.3-14.4-3c-5-1.9-10-4.1-14.8-6.3c-10.5-4.9-20.7-10.5-30.6-16.6c-1,7.3-1.9,14.6-2.9,21.9
				c20.5-5.2,40.9-11,61.1-17.2c9.4-2.9,12.3-16.9,2.9-21.9c-21.2-11.3-38.4,16.1-43.7,33c-1.5,4.8,1,11.2,5.5,13.6
				c3.4,1.8,6.9,3.2,10.7,3.8c4.8,0.8,11.3-0.4,13.6-5.5c3.3-7.5,6.5-15,9.8-22.5c1.4-3.2,2.7-6.5,4.3-9.7c0.3-0.5,1.7-2.4,1.8-3
				c0.3-1.3,2.6-0.1-1.4-0.7c6.4,0.9,12.9-1.6,14.8-8.4c1.5-5.6-1.9-13.8-8.4-14.8c-12.8-1.9-22.7,4.7-28.2,16.1
				c-4.8,10-8.9,20.4-13.4,30.7c4.5-1.8,9-3.7,13.6-5.5c-1.9-0.3-3.3-0.5-5-1.4c1.8,4.5,3.7,9,5.5,13.6c1.4-4.5,3.5-8.7,6.3-12.5
				c1.2-1.6,2.5-3.2,4-4.4c-0.2,0.2,1.4-1.3,1.1-0.9c2-2.2,2.4,2-2.9-0.8c1-7.3,1.9-14.6,2.9-21.9c-20.2,6.3-40.6,12-61.1,17.2
				c-10.3,2.6-11.4,16.6-2.9,21.9c11.4,7.1,23.3,13.5,35.6,18.9c13.6,6,27.5,12.6,42.7,9.5c8.4-1.7,10-11.1,7.2-17.6
				c-1-2.4-2.9-4.5-4.8-6.3c-0.6-0.5-3.5-3-2.7-1.9c-0.8-1.1-0.7-3.1-0.5-5.2c0.1-0.7,1.1-4.2,1.6-5.7c3.5-9.8,10.5-18.3,17-26.2
				c-6.7-3.9-13.4-7.8-20.1-11.7c-5,23.1-3.4,47.4,5.7,69.3c2.5,6,7.9,10.3,14.8,8.4c6.8-1.9,9.4-8.3,8.4-14.8
				c-3.2-19.9,4.7-40.3,11.3-58.7c-7.7-2.1-15.4-4.3-23.1-6.4c-4.4,25.1-2.9,50.7,5.4,74.8c1.9,5.6,7.1,9.5,13.2,8.6
				c5.3-0.8,11.1-5.8,10.4-11.8c-1.5-12.7-1.7-25.6-0.1-38.4c0.6-5,1.5-10,2.9-14.7c1-3.3,2.5-7.1,4.5-8.6
				c5.2-3.9,7.9-10.3,4.3-16.4c-3.5-5.9-10.6-7.2-16.4-4.3c-15.5,7.7-12.4,27.2-10.4,41.1c2.4,16.9,6.1,33.5,11.1,49.8
				c1.9,6.2,8.4,10.1,14.8,8.4c6.7-1.9,9.5-8.4,8.4-14.8c-4.2-24.1-0.8-48.7,8.5-71.2c-7.7-2.1-15.4-4.3-23.1-6.4
				c-8.2,27.4,3.5,53.5,6.5,80.6c0.7,6.4,5,12,12,12c6.6,0,11.9-5.5,12-12c0.4-25,2.6-49.9,6.9-74.6c-7.9-1.1-15.7-2.1-23.6-3.2
				c-0.2,27.7,3.3,55.4,10.3,82.2c3.6,13.5,22.9,10.1,23.6-3.2c1.6-29.9,2.5-59.9,2.8-89.9C669.3,244.9,645.3,244.9,645.1,260.3
				L645.1,260.3z"/>
		</g>
	</g>
	<g>
		<g>
			<path d="M646,242.8c-1.9,1.3-3.8,2.7-5.3,4.4c-1.2,1.1-2,2.4-2.5,3.9c-0.8,1.4-1.1,3-1,4.6c-0.1,1.7,0.3,3.2,1,4.6
				c0.5,1.5,1.3,2.8,2.5,3.9c0.8,0.6,1.6,1.3,2.4,1.9c1.9,1.1,3.9,1.6,6.1,1.6c1.1-0.1,2.1-0.3,3.2-0.4c2-0.6,3.8-1.6,5.3-3.1
				c0.6-0.7,1.2-1.3,1.9-1.8c-0.8,0.6-1.6,1.3-2.4,1.9c0.3-0.2,0.7-0.5,1-0.7c1.4-0.8,2.5-1.8,3.4-3.1c1.1-1.2,1.8-2.5,2.1-4.1
				c0.5-1.6,0.6-3.2,0.2-4.8c-0.1-1.6-0.5-3.1-1.4-4.5c-0.6-0.8-1.3-1.6-1.9-2.4c-1.5-1.5-3.3-2.5-5.3-3.1c-1.1-0.1-2.1-0.3-3.2-0.4
				C649.9,241.2,647.8,241.7,646,242.8L646,242.8z"/>
		</g>
	</g>
	<g>
		<g>
			<path d="M666.9,265.1c1.9-3.8,3-7.5,3-11.7c0-3.1-1.4-6.3-3.5-8.5c-2.1-2.1-5.5-3.6-8.5-3.5c-3.1,0.1-6.3,1.2-8.5,3.5
				c-2.2,2.4-3.5,5.2-3.5,8.5c0,0.5,0,1-0.1,1.6c0.1-1.1,0.3-2.1,0.4-3.2c-0.2,1-0.4,2-0.8,3c0.4-1,0.8-1.9,1.2-2.9
				c-0.2,0.4-0.3,0.7-0.5,1.1c-1.5,2.9-2.1,6-1.2,9.2c0.8,2.8,2.9,5.8,5.5,7.2c2.8,1.5,6.2,2.2,9.2,1.2
				C662.5,269.7,665.5,267.9,666.9,265.1L666.9,265.1z"/>
		</g>
	</g>
	<g>
		<g>
			<path d="M641.8,350.3c0,3.3,0,6.7,0,10c0,6.3,5.5,12.3,12,12c6.5-0.3,12-5.3,12-12c0-3.3,0-6.7,0-10c0-6.3-5.5-12.3-12-12
				C647.3,338.6,641.8,343.6,641.8,350.3L641.8,350.3z"/>
		</g>
	</g>
	<g>
		<g>
			<path d="M475.8,316.3c15.4,0,15.5-24,0-24C460.3,292.3,460.3,316.3,475.8,316.3L475.8,316.3z"/>
		</g>
	</g>
	<g>
		<g>
			<path d="M475.8,314.3c15.4,0,15.5-24,0-24C460.3,290.3,460.3,314.3,475.8,314.3L475.8,314.3z"/>
		</g>
	</g>
	<g>
		<g>
			<path d="M649.7,412.3c15.4,0,15.5-24,0-24C634.2,388.3,634.2,412.3,649.7,412.3L649.7,412.3z"/>
		</g>
	</g>
	<g>
		<g>
			<path d="M649.7,411c15.4,0,15.5-24,0-24C634.2,387,634.2,411,649.7,411L649.7,411z"/>
		</g>
	</g>
	<g>
		<g>
			<path d="M668.2,387.9c-8.5-2.2-17.3-2.6-26-2.4c-9.6,0.2-20.4,2.7-22.6,13.7c-1.3,6.3,1.8,13,8.4,14.8c5.9,1.6,13.5-2,14.8-8.4
				c-6,3.2-7.1,4.5-3.3,4c1.2,0,2.5-0.1,3.7-0.1c2.2,0,4.3,0,6.5,0c4.2,0.1,8.2,0.5,12.3,1.6C676.8,414.9,683.2,391.7,668.2,387.9
				L668.2,387.9z"/>
		</g>
	</g>
	<g>
		<g>
			<path d="M676.9,415.5c-3.3,18.7,5.8,33.6,18.2,46.7c10.6,11.3,27.6-5.7,17-17c-5.6-5.9-13.6-14.4-12-23.4
				c1.1-6.4-1.7-12.9-8.4-14.8C685.8,405.6,678,409.1,676.9,415.5L676.9,415.5z"/>
		</g>
	</g>
	<g>
		<g>
			<path d="M596.9,418.1c3,7.6-2.8,15.9-5.4,22.9c-3,8,6.5,18.2,14.8,14.8c8.5-3.5,12.3-9.9,14.6-18.6c2-7.6,2.6-15.7,1.7-23.5
				c-0.7-6.4-5-12-12-12c-5.9,0-12.7,5.5-12,12c0.5,4.2,0.7,8.4,0.1,12.6c-0.3,1.8-0.7,3.6-1.2,5.4c-0.3,1.1-0.7,2.3-1.1,3.4
				c0.4-1.4,1.5-2.2,3.5-2.4c4.9,4.9,9.8,9.8,14.8,14.8c4.3-11.6,10.3-23.1,5.4-35.6c-2.4-6-8-10.2-14.8-8.4
				C599.6,404.9,594.5,412,596.9,418.1L596.9,418.1z"/>
		</g>
	</g>
	<g>
		<g>
			<path d="M593,436.3c0,2.1,0.3,4.5-0.5,6.4c-0.6,1.4-1,1.3-2.2,2.2c-4.6,3.3-9.5,5.7-13.6,9.6c-11.3,10.6,5.7,27.5,17,17
				c1.4-1.3,4.1-2.9,6.5-4.4c3.1-1.9,6.3-4.1,8.9-6.7c6.5-6.6,8.1-15.3,8.1-24.2C617,420.9,593,420.9,593,436.3L593,436.3z"/>
		</g>
	</g>
</g>
<g id="Слой_5">
	<path class="st2" d="M854,261c-31.1-18.6-101.8-55.3-199-57c-104-1.8-179.9,37.6-211,56"/>
	<path class="st2" d="M853,257c4-7.5,10.8-18.2,22-28c16.2-14.1,26.9-13.5,38-28c7.1-9.2,14.8-25.3,9-35c-4.1-6.8-13.3-7.8-21-9
		c0,0-32.5-5.1-83-28c-19.1-8.7-32.3-18.2-46-28c-27.1-19.5-26.4-24.8-50-39c-21.2-12.8-38.8-18.8-52-22c-6.1-1.5-11.3-2.4-15-3"/>
</g>
<g id="Слой_6">
	<path class="st2" d="M454.1,261c31.1-18.6,101.8-55.3,199-57c104-1.8,179.9,37.6,211,56"/>
	<path class="st2" d="M455.1,257c-4-7.5-10.8-18.2-22-28c-16.2-14.1-26.9-13.5-38-28c-7.1-9.2-14.8-25.3-9-35c4.1-6.8,13.3-7.8,21-9
		c0,0,32.5-5.1,83-28c19.1-8.7,32.3-18.2,46-28c27.1-19.5,26.4-24.8,50-39c21.2-12.8,38.8-18.8,52-22c6.1-1.5,11.3-2.4,15-3"/>
	<g>
		<g>
			<path d="M651.7,30.8c2.1,0,4.2,0,6.3,0c1.9,0,1.9-3,0-3c-2.1,0-4.2,0-6.3,0C649.7,27.8,649.7,30.8,651.7,30.8L651.7,30.8z"/>
		</g>
	</g>
	<g>
		<g>
			<path d="M653,30.2c1.9,0,1.9-3,0-3C651.1,27.2,651.1,30.2,653,30.2L653,30.2z"/>
		</g>
	</g>
	<g>
		<g>
			<path d="M655.7,30.2c1.9,0,1.9-3,0-3C653.7,27.2,653.7,30.2,655.7,30.2L655.7,30.2z"/>
		</g>
	</g>
	<g>
		<g>
			<path d="M655.5,30.2c1.9,0,1.9-3,0-3C653.6,27.2,653.6,30.2,655.5,30.2L655.5,30.2z"/>
		</g>
	</g>
	<g>
		<g>
			<path d="M655.3,30.2c1.9,0,1.9-3,0-3C653.3,27.2,653.3,30.2,655.3,30.2L655.3,30.2z"/>
		</g>
	</g>
	<g>
		<g>
			<path d="M655.1,30.2c1.9,0,1.9-3,0-3C653.2,27.2,653.1,30.2,655.1,30.2L655.1,30.2z"/>
		</g>
	</g>
	<g>
		<g>
			<path d="M654.9,30.2c1.9,0,1.9-3,0-3C653,27.2,653,30.2,654.9,30.2L654.9,30.2z"/>
		</g>
	</g>
	<g>
		<g>
			<path d="M654.8,30.2c1.9,0,1.9-3,0-3C652.8,27.2,652.8,30.2,654.8,30.2L654.8,30.2z"/>
		</g>
	</g>
	<g>
		<g>
			<path d="M654.8,30.2c1.9,0,1.9-3,0-3C652.8,27.2,652.8,30.2,654.8,30.2L654.8,30.2z"/>
		</g>
	</g>
	<g>
		<g>
			<path d="M654.6,27.2c-0.1,0-0.1,0-0.2,0c-0.8,0-1.5,0.7-1.5,1.5c0,0.8,0.7,1.5,1.5,1.5c0.1,0,0.1,0,0.2,0c0.8,0,1.5-0.7,1.5-1.5
				C656,27.9,655.4,27.2,654.6,27.2L654.6,27.2z"/>
		</g>
	</g>
	<g>
		<g>
			<path d="M653.3,30.2c1.9,0,1.9-3,0-3C651.4,27.2,651.4,30.2,653.3,30.2L653.3,30.2z"/>
		</g>
	</g>
	<g>
		<g>
			<path d="M652.9,30.2c1.9,0,1.9-3,0-3C651,27.2,651,30.2,652.9,30.2L652.9,30.2z"/>
		</g>
	</g>
	<g>
		<g>
			<path d="M652.4,30.2c1.9,0,1.9-3,0-3C650.5,27.2,650.5,30.2,652.4,30.2L652.4,30.2z"/>
		</g>
	</g>
	<g>
		<g>
			<path d="M652.4,30.2c1.9,0,1.9-3,0-3C650.5,27.2,650.5,30.2,652.4,30.2L652.4,30.2z"/>
		</g>
	</g>
	<g>
		<g>
			<path d="M652.3,30.2c1.9,0,1.9-3,0-3C650.4,27.2,650.4,30.2,652.3,30.2L652.3,30.2z"/>
		</g>
	</g>
	<g>
		<g>
			<path d="M652.3,30.1c1.9,0,1.9-3,0-3C650.3,27.1,650.3,30.1,652.3,30.1L652.3,30.1z"/>
		</g>
	</g>
	<g>
		<g>
			<path d="M652.5,29.9c1.9,0,1.9-3,0-3C650.6,26.9,650.6,29.9,652.5,29.9L652.5,29.9z"/>
		</g>
	</g>
	<g>
		<g>
			<path d="M652.8,29.9c1.9,0,1.9-3,0-3C650.8,26.9,650.8,29.9,652.8,29.9L652.8,29.9z"/>
		</g>
	</g>
	<g>
		<g>
			<path d="M651.8,29.5C651.8,29.5,651.8,29.5,651.8,29.5c0.7,0.7,1.6,0.7,2.2,0.1c0.6-0.6,0.6-1.5,0-2.1c0,0-0.1-0.1-0.1-0.1
				c-0.6-0.6-1.5-0.6-2.1,0C651.2,27.9,651.2,28.9,651.8,29.5L651.8,29.5z"/>
		</g>
	</g>
	<g>
		<g>
			<path d="M653.1,30c1.9,0,1.9-3,0-3C651.2,27,651.1,30,653.1,30L653.1,30z"/>
		</g>
	</g>
	<g>
		<g>
			<path d="M653.2,30c1.9,0,1.9-3,0-3C651.2,27,651.2,30,653.2,30L653.2,30z"/>
		</g>
	</g>
	<g>
		<g>
			<path d="M653.3,30c1.9,0,1.9-3,0-3C651.3,27,651.3,30,653.3,30L653.3,30z"/>
		</g>
	</g>
	<g>
		<g>
			<path d="M653.7,30.1c1.9,0,1.9-3,0-3C651.7,27.1,651.7,30.1,653.7,30.1L653.7,30.1z"/>
		</g>
	</g>
	<g>
		<g>
			<path d="M654,30.1C654,30.1,654.1,30.1,654,30.1c0.9,0,1.6-0.7,1.6-1.5c0-0.8-0.7-1.5-1.5-1.5c0,0-0.1,0-0.1,0
				c-0.8,0-1.5,0.7-1.5,1.5C652.5,29.4,653.2,30.1,654,30.1L654,30.1z"/>
		</g>
	</g>
	<g>
		<g>
			<path d="M654.7,30.1c0.1,0,0.2,0,0.3,0c0.8,0,1.5-0.7,1.5-1.5c0-0.8-0.7-1.5-1.5-1.5c-0.1,0-0.2,0-0.3,0c-0.8,0-1.5,0.7-1.5,1.5
				C653.2,29.4,653.8,30.1,654.7,30.1L654.7,30.1z"/>
		</g>
	</g>
	<g>
		<g>
			<path d="M656.3,30.2c1.9,0,1.9-3,0-3C654.4,27.2,654.4,30.2,656.3,30.2L656.3,30.2z"/>
		</g>
	</g>
	<g>
		<g>
			<path d="M655.9,30.2c1.9,0,1.9-3,0-3C654,27.2,654,30.2,655.9,30.2L655.9,30.2z"/>
		</g>
	</g>
	<g>
		<g>
			<path d="M652.6,30.2c1.9,0,1.9-3,0-3C650.7,27.2,650.6,30.2,652.6,30.2L652.6,30.2z"/>
		</g>
	</g>
	<g>
		<g>
			<path d="M652.4,30.2c1.9,0,1.9-3,0-3C650.5,27.2,650.5,30.2,652.4,30.2L652.4,30.2z"/>
		</g>
	</g>
	<g>
		<g>
			<path d="M652.3,30.1c1.9,0,1.9-3,0-3C650.4,27.1,650.4,30.1,652.3,30.1L652.3,30.1z"/>
		</g>
	</g>
	<g>
		<g>
			<path d="M653.8,29.8c1.9,0,1.9-3,0-3C651.8,26.8,651.8,29.8,653.8,29.8L653.8,29.8z"/>
		</g>
	</g>
	<g>
		<g>
			<path d="M654.4,29.9c1.9,0,1.9-3,0-3C652.5,26.9,652.5,29.9,654.4,29.9L654.4,29.9z"/>
		</g>
	</g>
	<g>
		<g>
			<path d="M654.8,29.9c1.9,0,1.9-3,0-3C652.9,26.9,652.9,29.9,654.8,29.9L654.8,29.9z"/>
		</g>
	</g>
	<g>
		<g>
			<path d="M655.2,29.9c1.9,0,1.9-3,0-3C653.2,26.9,653.2,29.9,655.2,29.9L655.2,29.9z"/>
		</g>
	</g>
	<g>
		<g>
			<path d="M655.9,30.2c1.9,0,1.9-3,0-3C654,27.2,654,30.2,655.9,30.2L655.9,30.2z"/>
		</g>
	</g>
	<g>
		<g>
			<path d="M655.8,30.2c1.9,0,1.9-3,0-3C653.8,27.2,653.8,30.2,655.8,30.2L655.8,30.2z"/>
		</g>
	</g>
	<g>
		<g>
			<path d="M655.8,30c1.9,0,1.9-3,0-3C653.9,27,653.9,30,655.8,30L655.8,30z"/>
		</g>
	</g>
	<g>
		<g>
			<path d="M651.8,30.3c1.9,0,1.9-3,0-3C649.8,27.3,649.8,30.3,651.8,30.3L651.8,30.3z"/>
		</g>
	</g>
	<g>
		<g>
			<path d="M652.1,30c1.9,0,1.9-3,0-3C650.2,27,650.1,30,652.1,30L652.1,30z"/>
		</g>
	</g>
	<g>
		<g>
			<path d="M653.3,40.2c0,0.3,0.1,0.6,0.1,0.8c0.1,1.3,2.1,2.3,2.8,0.8c0.3-0.7,0.4-1.1,0.5-1.9c0.1-1.5-2.1-2-2.8-0.8
				c-1,1.7-1.6,3.4-1.9,5.4c-0.3,1.9,2.2,2.7,2.9,0.8c0.5-1.4,1.4-3.4,1.3-5c-0.1-1.4-1-2.1-1.1-3.5c-0.2-2.4,1.1-6.3-1.8-7.6
				c-1.6-0.7-3.6,0.4-3.2,2.3c0.6,3.2,4.1,1.1,5.8,1c-0.4-0.2-0.9-0.5-1.3-0.7c0-0.2-0.1-0.4-0.1-0.7c-0.2,0.5-0.4,1-0.6,1.5
				c-0.2,0.6-0.5,1.1-0.6,1.7c-0.3,1.2-0.3,2.3-0.2,3.5c0.2,1.9,3.2,1.9,3,0c-0.2-2.1,0.5-3.5,1.1-5.4c0.2-0.8,0.4-1.3,0-2.1
				c-0.2-0.4-0.8-0.8-1.3-0.7c-0.4,0-0.8,0.1-1.2,0.2c-1.4,0.4-1.5,0.4-2,1.9c-0.6,1.9-0.7,3.8-0.5,5.7c0.1,1,0.4,1.8,0.6,2.8
				c0.3,1.5-0.2,2.9-0.7,4.5c1,0.3,1.9,0.5,2.9,0.8c0.2-1.7,0.7-3.2,1.6-4.7c-0.9-0.3-1.9-0.5-2.8-0.8c0,0.1,0,0.2-0.1,0.3
				c0.9,0.3,1.9,0.5,2.8,0.8c0-0.3-0.1-0.6-0.1-0.8C656.1,38.3,653.1,38.2,653.3,40.2L653.3,40.2z"/>
		</g>
	</g>
	<g>
		<g>
			<path d="M655.5,43.8c-0.7,0-1.3,0.1-2,0.2c-1.1,0.2-1.5,1.8-0.7,2.5c0.5,0.5,1.2,0.7,1.9,0.5c1.2-0.3,1.5-2.2,0.4-2.7
				c-0.9-0.4-1.9-0.2-2.4,0.6c-0.4,0.7-0.2,1.6,0.5,2.1c0.7,0.4,1.6,0.2,2.1-0.5c0,0,0-0.1,0.1-0.1c-0.2,0.2-0.4,0.4-0.5,0.5
				c0,0,0.1,0,0.1-0.1c-0.3,0.1-0.5,0.1-0.8,0.2c0,0,0.1,0,0.1,0c-0.3-0.1-0.5-0.1-0.8-0.2c0,0,0.1,0,0.1,0c0.1-0.9,0.2-1.8,0.4-2.7
				c0.1,0,0.1,0,0.2,0c0.3,0.1,0.5,0.1,0.8,0.2c0,0,0.1,0.1,0.1,0.1c-0.2,0.8-0.4,1.7-0.7,2.5c0.4-0.1,0.7-0.1,1.2-0.1
				c0.8,0,1.5-0.7,1.5-1.5C657,44.5,656.3,43.8,655.5,43.8L655.5,43.8z"/>
		</g>
	</g>
	<g>
		<g>
			<path d="M850,266.5c1.9,0,1.9-3,0-3C848.1,263.5,848.1,266.5,850,266.5L850,266.5z"/>
		</g>
	</g>
	<g>
		<g>
			<path d="M848.2,268.1c3.6,2.6,8.9,4,11.8-0.1c-0.9-0.4-1.8-0.8-2.7-1.2c-1.2,3.7-3.8,1.4-6.5,0.2c-1.7-0.8-3.2,1.7-1.5,2.6
				c2.1,1.1,4.2,2.2,6.3,3.4c1.1,0.6,2.2-0.2,2.3-1.3c0.2-2,0.8-6.4-2.6-6.2c-2.4,0.2-2.6,2.7-1.5,4.1c1,1.3,3.3-0.4,2.4-1.8
				c-1-1.4-2-2.6-3.2-3.8c-0.1,0.8-0.2,1.6-0.3,2.4c2.1-1,4.3-2,5.7-4c0.9-1.1,1.2-2.4,1.9-3.6c1.3-2.1,2.9-2.9,4.8-4.2
				c4.7-3.3,5.9-8.3,9.9-12.1c-0.7-0.7-1.4-1.4-2.1-2.1c-3.5,4.1-8,4.8-10.2,10c-2.8,6.7-4.8,13.8-6.6,20.7
				c-0.5,1.9,2.2,2.5,2.9,0.8c1.9-4.8,4.1-9.5,6.3-14.1c0.9-1.7-1.7-3.2-2.6-1.5c-2.4,4.8-4.6,9.8-6.6,14.8c1,0.3,1.9,0.5,2.9,0.8
				c1.6-5.8,3.3-11.6,5.4-17.3c1.3-3.5,2.3-5.8,5.5-7.9c2-1.3,3.6-2.3,5.2-4.2c1.2-1.5-0.7-3.5-2.1-2.1c-1.7,1.6-2.8,3.3-3.9,5.3
				c-1.8,3.2-3.6,5.1-6.6,7.1c-4.6,3.2-5.9,8.6-11.2,11c-0.9,0.4-0.9,1.7-0.3,2.4c1.1,0.9,2,2,2.7,3.2c0.8-0.6,1.6-1.2,2.4-1.8
				c-0.7-0.8-1,3.9-1.1,4.2c0.8-0.4,1.5-0.9,2.3-1.3c-2.1-1.1-4.2-2.2-6.3-3.4c-0.5,0.9-1,1.7-1.5,2.6c1.8,0.8,5.6,3.7,7.7,3
				c1.9-0.6,2.6-3.4,3.1-5c0.6-1.7-1.8-2.5-2.7-1.2c-1.9,2.7-5.9,0.4-7.7-0.9C848.2,264.4,846.7,267,848.2,268.1L848.2,268.1z"/>
		</g>
	</g>
	<g>
		<g>
			<path d="M867.9,251.6c0.4-2.7,1.2-5.4,2.5-7.9c0.8-1.7-1.7-3.3-2.6-1.5c-1.3,2.7-2.3,5.6-2.8,8.6
				C864.7,252.7,867.6,253.5,867.9,251.6L867.9,251.6z"/>
		</g>
	</g>
	<g>
		<g>
			<path d="M869,245.7c-2.2,2.8-4.1,5.8-5.6,9c-0.8,1.7,1.7,3.2,2.6,1.5c1.4-2.9,3.2-5.8,5.2-8.3C872.3,246.4,870.2,244.2,869,245.7
				L869,245.7z"/>
		</g>
	</g>
	<g>
		<g>
			<path d="M868.7,251.9c2.1-5,5.3-9.1,8.5-13.5c1.1-1.6-1.5-3.1-2.6-1.5c-3.2,4.4-6.3,8.5-8.5,13.5
				C865.4,252.1,868,253.7,868.7,251.9L868.7,251.9z"/>
		</g>
	</g>
	<g>
		<g>
			<path d="M442.8,250.8c-0.2-0.8-0.4-1.6-0.5-2.4c-0.4-1.6-2.4-1.2-2.9,0c-0.4,0.9-0.4,1.7,0,2.6c0.8-0.5,1.7-1,2.5-1.5
				c-2.3-2.9-4.3-6.1-6.2-9.3c-0.9-1.7-3.5-0.2-2.6,1.5c1.9,3.5,4.2,6.8,6.6,10c0.9,1.2,3.1-0.1,2.5-1.5c0-0.3,0-0.7,0-1
				c-1,0-1.9,0-2.9,0c0.2,0.8,0.4,1.6,0.5,2.4C440.3,253.5,443.2,252.7,442.8,250.8L442.8,250.8z"/>
		</g>
	</g>
	<g>
		<g>
			<path d="M442.2,250.5c-1.3-2.5-2.6-5-3.9-7.5c-0.9-1.7-3.5-0.2-2.6,1.5c1.3,2.5,2.6,5,3.9,7.5
				C440.5,253.8,443.1,252.2,442.2,250.5L442.2,250.5z"/>
		</g>
	</g>
	<g>
		<g>
			<path d="M441.6,250.1c-0.9-2.4-2-4.6-3.5-6.7c-1.1-1.6-3.7-0.1-2.6,1.5c1.3,1.8,2.4,3.8,3.2,5.9
				C439.4,252.7,442.3,252,441.6,250.1L441.6,250.1z"/>
		</g>
	</g>
	<g>
		<g>
			<path d="M448.9,266.9c0.4,1.7,0.8,5.6,3.4,5c1.1-0.2,1.7-1.2,2.6-1.9c1.2-0.9,2.7-1.3,4.2-1.3c-0.4-0.8-0.9-1.5-1.3-2.3
				c-0.7,1.2-2.5,1.2-3.7,1.7c-1.3,0.5-2.3,1.1-3.1,2.2c-1,1.4,1.3,3.2,2.4,1.8c0.8-1,1.7-1.7,2.9-2c-0.6-0.7-1.1-1.5-1.7-2.2
				c-2.3,3.6-4.4-2.3-4-4.3c0.4-1.9-2.5-2.7-2.9-0.8c-0.6,3,0.2,6.1,2.5,8.2c2.4,2.2,5.3,1,6.9-1.5c0.7-1.1-0.5-2.6-1.7-2.2
				c-1.7,0.5-3.2,1.4-4.3,2.8c0.8,0.6,1.6,1.2,2.4,1.8c0.8-1.1,2.7-1.2,3.8-1.6c1.3-0.5,2.2-1.1,3-2.3c0.6-1-0.2-2.3-1.3-2.3
				c-1.5,0-2.8,0.2-4.2,0.8c-0.7,0.3-1.4,0.7-2,1.2c-0.2,0.1-1.1,1.1-1.2,1.1c0.4,0.1,0.7,0.3,1.1,0.4c-0.6-0.6-0.8-2.5-1-3.3
				C451.3,264.2,448.4,265,448.9,266.9L448.9,266.9z"/>
		</g>
	</g>
	<g>
		<g>
			<path d="M454.5,268.8c0.8-0.5,1.6-1,2.4-1.5c0.8-0.5,1-1.6,0.3-2.4c-1.9-1.9-5.4-1.1-5.8,1.7c-0.2,1.1,0.6,2.2,1.8,1.8
				c0.9-0.2,1.6-0.8,2-1.6c0.3-0.7,0.2-1.6-0.5-2.1c-0.6-0.4-1.7-0.2-2.1,0.5c-0.6,1.4-0.8,2.9-0.4,4.3c0.6,1.8,3.5,1.1,2.9-0.8
				c-0.2-0.7-0.2-1.4,0.1-2c-0.9-0.5-1.7-1-2.6-1.5c-0.1,0.2,0,0.2-0.2,0.2c0.6,0.6,1.2,1.2,1.8,1.8c0.1-0.5,0.4-0.8,0.8-0.4
				c0.1-0.8,0.2-1.6,0.3-2.4c-0.8,0.5-1.6,1-2.4,1.5C451.4,267.2,452.9,269.8,454.5,268.8L454.5,268.8z"/>
		</g>
	</g>
	<g>
		<g>
			<path d="M456.5,266.4c-1.5,1.1-3,2.3-4.6,3.4c-0.6,0.5-1,1.3-0.5,2.1c0.4,0.6,1.4,1,2.1,0.5c1.5-1.1,3-2.3,4.6-3.4
				c0.6-0.5,1-1.3,0.5-2.1C458.2,266.3,457.1,266,456.5,266.4L456.5,266.4z"/>
		</g>
	</g>
	<path class="st3" d="M644,36c1.3-0.9,4.9-3,10-3c1.6,0,5.8,0.2,10,3"/>
	<g>
		<g>
			<path d="M604.8,123.5c0,7.2,9.3,15.3,16.5,12.5c7.1-2.8,11.7-14.2,9.4-21.1c-0.6-1.8-3.5-1-2.9,0.8c1.6,4.9-1.1,12.1-4.8,15.6
				c-3.1,3-6.6,2.5-9.9,0.2c-2.7-1.9-5.2-4.4-5.2-8C607.8,121.6,604.8,121.6,604.8,123.5L604.8,123.5z"/>
		</g>
	</g>
	<g>
		<g>
			<path d="M612.6,108.6c-9.5,4.4-18.4,10-27.4,15.2c-9.1,5.3-18.4,10.4-27.3,16.1c-2,1.3-3.9,2.6-5.9,4c-0.9,0.6-1.8,1.3-2.8,1.9
				c-0.6,0.4-3.7,1.7-1.1,0.8c2.7-1-0.7,0.1-1.2,0.2c-1.1,0.3-2.2,0.6-3.2,0.8c-2.8,0.7-5.6,1.4-8.4,2.1
				c-10.5,2.6-21.1,5.2-31.6,7.9c-10.7,2.7-18.1,15.2-14.7,25.8c3.6,11,14.4,17.5,25.8,14.7c10.5-2.6,21.1-5.2,31.6-7.9
				c4.9-1.2,9.9-2.2,14.6-3.9c6.3-2.2,11-5.5,16.5-9.2c8.8-5.8,18-10.9,27.1-16.1c9.6-5.5,19-11.5,29.1-16.2
				c10-4.6,13.3-19.8,7.5-28.7C634.6,105.8,623.3,103.6,612.6,108.6L612.6,108.6z"/>
		</g>
	</g>
	<g>
		<g>
			<path d="M902.5,161.1c-14.2-5.2-28.4-10.6-42.4-16.3c-1.8-0.7-3.5-1.4-5.2-2.2c-0.4-0.2-6.2-2.6-2-0.8c-2.9-1.2-5.8-2.5-8.7-3.7
				c-7.5-3.3-15-6.6-22.5-10.1c-13.2-6.1-26.2-12.4-39.1-19c-6.4-3.3-12.8-6.6-19-10.3c-2.6-1.5-5.1-3.1-7.6-4.8c-1.5-1-3-2-4.4-3.1
				c-0.9-0.7-1.8-1.3-2.7-2c2,1.6,2.1,1.6,0.2,0.1c-5.7-4.7-11.6-9.4-17.5-13.8c-7.3-5.4-15-9.1-23.3-12.6c-2.9-1.2-5.8-2.3-8.6-3.5
				c-1.7-0.7-3.4-1.4-5.1-2.1c4.4,1.8-1.2-0.5-1.8-0.7c-7.9-3.3-15.7-6.8-23.9-9.2c-14.7-4.4-31.4-5.9-46.3-1.3
				c-8.1,2.5-15,6.4-21.4,11.8c-5.4,4.5-9.5,11.4-15.6,15.1c0.5-0.3,3.6-2.6,0.4-0.4c-1.8,1.2-3.5,2.4-5.3,3.5
				c-3.2,2-6.4,3.9-9.6,5.8c-7.1,4.2-13.8,8.7-20.2,14c-5,4.2-9.3,9.1-13.8,13.9c-1,1.1-2.1,2.1-3.1,3.2c-0.7,0.7-1.4,1.3-2.2,2
				c-1.7,1.5-1.5,1.3,0.9-0.5c-0.6,1-2.7,1.7-3.6,2.4c-2,1-1.6,0.9,1.2-0.3c-0.9,0.4-1.8,0.7-2.8,0.9c-10.5,3.2-18.2,14.9-14.7,25.8
				c3.4,10.6,14.6,18,25.8,14.7c14.5-4.3,24.2-14.4,34.2-25c1.7-1.8,3.4-3.6,5.3-5.2c0.7-0.6,4.7-4.2,0.7-0.8c1.2-1,2.6-1.9,3.9-2.8
				c5.3-3.6,10.9-6.7,16.4-10.1c6.1-3.7,11.9-7.8,17.3-12.4c5-4.2,8.9-10.6,14.3-14.1c-4.5,2.9,0.1,0.4,0.9-0.1c3.9-2.7-4,1,0.6-0.4
				c1.2-0.3,6.7-1,7.5-1.9c-0.8,0.1-1.7,0.2-2.5,0.3c1-0.1,2.1-0.2,3.1-0.2c1.6-0.1,3.1-0.1,4.7,0c1.4,0.1,3.3,0,4.7,0.4
				c-5.3-1.6-0.5,0,0.8,0.3c7.2,1.5,14.1,4.1,20.9,6.8c1.1,0.5,2.3,0.9,3.4,1.4c-4.4-1.8,1.2,0.5,1.8,0.7c5.1,2.1,10.2,4.2,15.3,6.3
				c-0.2-0.1,5.5,2.3,2.7,1.1c-2.8-1.2,2.7,1.3,2.6,1.2c3.1,1.5,6.2,3.3,9.1,5.2c1.4,0.9,2.8,1.9,4.1,2.9c3.2,2.3,0.4,0.3-0.2-0.2
				c3.1,2.5,6.2,5,9.3,7.5c23,18.3,49.5,30.8,76,43.2c31.3,14.7,63.4,27.9,95.9,39.7c10.3,3.7,23.4-4.2,25.8-14.7
				C919.8,175.1,913.6,165.1,902.5,161.1L902.5,161.1z"/>
		</g>
	</g>
	<g>
		<g>
			<path d="M510.8,126c1.8-1.6,2.1-1.7-0.1-0.2c-2,1.4,3.2-0.8,0.8-0.4c-2.3,0.4-4.5,1.3-6.8,1.8c-4.8,1.1-9.5,2.2-14.1,3.8
				c-9.5,3.1-18.7,7-27.9,10.8c-8.8,3.7-17.7,7.3-27,10c-2.3,0.7-4.7,1.3-7,1.8c-1.3,0.3-2.6,0.5-3.9,0.8c-0.6,0.1-4.1,0.7-1.2,0.2
				c3.3-0.5-1.8,0.1-2,0.1c-1.1,0.1-2.1,0.1-3.2,0.2c-2.7,0.1-5.4,0-8.1-0.2c-9.9-0.7-17,7.2-20.2,15.4c-4.5,11.3,0.7,24.6,9.1,32.6
				c7.2,6.8,16.2,9,25.5,11.1c0.2,0,4.8,1.3,4.7,1.3c-2.7-1.2-3.1-1.3-1-0.3c0.6,0.3,1.3,0.7,1.9,1.1c1.3,0.9,0.8,0.5-1.3-1.2
				c0.8,0.6,1.5,1.2,2.2,1.9c1.1,1,2,2.1,3,3.2c2.8,3-2.3-3.4,0.8,1c1,1.4,2,2.9,2.9,4.4c1.8,3,3.5,6.1,5.2,9.2
				c4,7.4,13,11.1,20.9,10c8.4-1.1,15-7,17.5-15c3.6-11.5,6.4-23.8,10.9-34.9c-1.8,3.1-3.6,6.2-5.4,9.3c0.2-0.3,0.5-0.6,0.7-0.9
				c-3.1,1.8-6.2,3.6-9.3,5.4c0.3-0.1,0.6-0.2,1-0.3c-5.4-0.7-10.8-1.4-16.2-2.1c0.4,0.2,0.7,0.4,1.1,0.6c-2.5-2.5-5-5-7.5-7.5
				c0.6,0.9,2.1,4.9,0.7,0.9c0.5,1.4,1,2.8,1.4,4.2c0.4,1.4,0.8,2.8,1.1,4.3c0.2,1.1,0.8,6.4,0.3,1.4c1.1,10.9,8.8,21.5,21,21
				c10.4-0.5,22.2-9.3,21-21c-0.9-8.9-2.6-17-6.1-25.2c-2.5-5.8-5.2-10.8-10.8-14.4c-6.8-4.3-16.4-4.7-23.2-0.3
				c-9.1,5.9-11.3,16.2-14.3,25.8c-2.3,7.5-4.7,15-7,22.6c12.8-1.7,25.6-3.3,38.4-5c-6.9-12.8-14.9-25-27.2-33.2
				c-6.4-4.2-13.7-6.1-21-7.8c-1-0.2-4.3-0.5-4.8-1.2c0.7,0.3,1.3,0.6,2,0.9c-1.6-0.9-1.6-0.9-0.3,0.1c1.3,1.1,1.3,1.1-0.1-0.2
				c1,0.9,1.7,2,2,3.3c0.6,1.3,0.8,2.8,0.7,4.3c-0.7,3.4-0.7,4,0,1.7c-6.7,5.1-13.5,10.3-20.2,15.4c22.8,1.7,44.4-6.4,65.1-15
				c9.7-4.1,19.4-8.2,29.5-11.2c5.1-1.5,10.4-2.4,15.6-3.9c7.7-2.1,14.1-5.6,20.1-10.9c8.3-7.3,8-22.4,0-29.7
				C531.6,117.9,519.6,118.3,510.8,126L510.8,126z"/>
		</g>
	</g>
	<g>
		<g>
			<path d="M484.1,236.9c6.9-2.2,13.6-5.1,20.3-8c0.7-0.3,3.7-1.5,0,0c1.4-0.6,2.8-1.2,4.2-1.7c3.2-1.2,6.4-2.3,9.7-3.2
				c12.1-3.5,24.7-5.2,37.2-7.3c25.1-4.2,50.1-8.8,75.3-12.3c-4.7,0.7,1.7-0.2,2.2-0.3c1.3-0.2,2.6-0.3,3.9-0.5
				c3.2-0.4,6.5-0.7,9.7-1c6.5-0.6,13-1,19.5-1.2c13.1-0.4,26.2,0.3,39.2,1.7c2.9,0.3,5.9,0.6,8.8,1c1.6,0.2,3.3,0.4,4.9,0.6
				c-3.9-0.5-0.5-0.1,0.3,0c6.7,1,13.3,2,20,3c10.7,1.7,21.4,3.6,32,5.9c11.9,2.7,23.5,6.2,34.9,10.4c5.2,1.9-4-1.9,1,0.4
				c1.5,0.7,3,1.3,4.5,2.1c2.7,1.3,5.4,2.7,8,4.1c5.5,3.1,10.8,6.6,15.8,10.4c4,3.1,11.6,3.4,16.2,2.1c4.9-1.3,10.1-5.1,12.6-9.7
				c5.9-11.1,1.8-21.6-7.5-28.7c-39.2-30-92.2-36.3-139.6-42.4c-26.1-3.3-52-4-78.2-1.1c-27.8,3.1-55.3,8.2-82.9,12.8
				c-14.4,2.4-29.1,4.4-43.3,7.8c-6.6,1.6-13,3.7-19.3,6.3c-2.5,1-5,2.1-7.5,3.2c-0.8,0.4-6.9,2.8-2.5,1.1
				c-3.4,1.4-6.8,2.7-10.2,3.7c-10.5,3.3-18.2,14.8-14.7,25.8C461.7,232.7,472.9,240.4,484.1,236.9L484.1,236.9z"/>
		</g>
	</g>
	<g>
		<g>
			<path d="M890,174.5c-5.9,1.3-11.9,2.4-17.9,3.3c-3.3,0.5,3.2-0.3-0.1,0c-1.6,0.1-3.2,0.4-4.8,0.5c-3.2,0.3-6.4,0.5-9.6,0.7
				c-7.5,0.4-14.2,3.7-18.1,10.4c-3.6,6.1-4.2,15.1,0,21.2c1.1,1.6,2.3,3.3,3.4,4.9c11-8.5,22-17,33-25.4
				c-10.7-12-22.2-22.8-37.5-28.6c-12.9-4.9-27.2-5.1-40.4-9.2c-3.2-1-6.4-2.1-9.5-3.3c-1.5-0.6-3.2-1.1-4.7-1.9
				c4.6,2.3-0.4-0.2-1.2-0.5c-6.2-2.8-12.2-5.8-18.2-9c-12.1-6.5-23.8-13.5-35.7-20.2C701.1,101.9,672,90,642.2,79.7
				c-6.5-2.3-13.1-4.7-19.7-6.7c-11.9-3.5-22-0.6-32.9,4.1c-13.9,6-26.7,14-38.4,23.6c-10.4,8.6-15.1,23.1-8.3,35.4
				c3.4,6.2,9,10.8,15.9,12.6c5.8,1.5,11.5,0.2,17.2-1c17.8-3.6,35.6-7.2,53.4-10.7c-8.9-6.7-17.7-13.5-26.6-20.2
				c0.2,3.4,0.6-1.3,1-2.6c1-2.9-0.2,0.1-0.5,0.7c-0.9,2.1,2.7-2.8,0.1-0.1c-0.7,0.7-1.4,1.5-2.1,2.2c-3.8,3.9-7.7,7.6-11.4,11.7
				c-8.2,9-15.6,18.7-22.4,28.8c-4.1,6.1-3.6,15,0,21.2c3.9,6.7,10.6,9.8,18.1,10.4c26.7,2,52.1-7.5,76.3-17.4
				c5.3-2.2,9.6-4.5,12.6-9.7c2.6-4.5,3.8-11.1,2.1-16.2c-3.3-10.3-14.7-18.5-25.8-14.7c-12.3,4.2-24.2,9.5-35.5,16
				c8.5,11,17,22,25.4,33c11.1-11.8,21.2-24.7,30.1-38.3c3.7-5.6,4.2-15.6,0-21.2c-6.4-8.5-14.3-13.2-25.1-11.7
				c-9.1,1.2-16.7,7-20.2,15.5c-8.1,19.1,7.8,36.8,26.2,39.7c11.3,1.8,22.4,4,33.4,7.2c5.3,1.6,10.6,3.3,15.8,5.2
				c2.9,1.1,5.8,2.2,8.6,3.3c-1.9-0.7-1.6-0.7,0.1,0c1.7,0.7,3.4,1.5,5.1,2.3c10,4.6,23.1,3.2,28.7-7.5c4.9-9.2,3.1-23.8-7.5-28.7
				c-14.6-6.7-29.5-12.5-45-16.6c-7.2-1.9-14.4-3.5-21.7-4.7c-3.2-0.6-6.5-0.9-9.7-1.6c-0.8-0.2-1.7-0.4-2.5-0.7
				c1.8,0.3,3.2,1.3,4.2,2.9c7,5.5,5.7,13.2-4,23.1c-5.2,2.7-10.4,2.8-15.7,0.2c-2.5-2.5-5-5-7.5-7.5c0.2,0.3,0.4,0.5,0.6,0.8
				c0-7.1,0-14.1,0-21.2c-2,3-4,6-6.1,8.9c-0.9,1.2-1.8,2.4-2.7,3.6c-0.5,0.7-1.1,1.4-1.6,2.2c1.3-1.6,1.4-1.9,0.5-0.7
				c-4.5,5.3-8.9,10.6-13.6,15.7c-7.2,7.7-8.1,19.2-1.6,27.6c6.3,8.2,18,10.7,27.1,5.4c4.6-2.7,9.3-5.1,14.1-7.4
				c1.1-0.5,2.2-1,3.2-1.5c-1.7,0.8-2.1,0.8-0.1,0.1c2.7-1.1,5.5-2.1,8.3-3.1c-3.7-13.5-7.4-27-11.2-40.5
				c-11.1,4.6-22.3,9.1-33.8,12.4c-2.6,0.7-5.3,1.4-8,2c-1.5,0.3-3,0.6-4.5,0.9c-2,0.4-3.7,0.6-0.7,0.2c-6,0.8-12.1,0.9-18.2,0.4
				c6,10.5,12.1,21.1,18.1,31.6c1.7-2.5,3.3-4.9,5.1-7.3c0.3-0.4,3.9-5.1,1-1.4c0.7-0.9,1.5-1.9,2.2-2.8c3.9-4.8,8-9.5,12.4-14
				c10-10.3,21-20.7,20.2-36.4c-0.7-14.3-12.8-23-26.6-20.2c-13.7,2.8-27.3,5.5-41,8.3c-3.2,0.6-6.4,1.3-9.5,1.9
				c-1.6,0.3-3.2,0.5-4.8,1c-15,4.2,31.6,16.5,14.9,25.6c0.6-0.3,1.6-1.6,2-2c3.5-3.3-3.6,2.5,1-0.8c2.6-1.8,5.2-3.7,7.8-5.4
				c5.1-3.3,10.4-6.2,15.9-8.9c1-0.5,2.1-1,3.1-1.5c5.2-2.4-4,1.3,1.3-0.6c-0.1,0,3-1.3,3.3-1.1c-2.8,0.1-3,0.2-0.5,0.1
				c-2.6-0.4-2.8-0.3-0.3,0.3c5.6,2.6,12,4,17.9,6.1c6.6,2.3,13.2,4.6,19.7,7c5.9,2.2,11.8,4.5,17.7,6.9c-0.2-0.1,5.5,2.3,2.7,1.1
				c-2.8-1.2,2.9,1.3,2.7,1.2c3.5,1.5,6.9,3.1,10.4,4.7c11.1,5.3,21.8,11.2,32.4,17.4c21.7,12.5,43.4,25.1,67.2,33.4
				c6.4,2.2,12.9,4,19.5,5.3c6.9,1.3,14,1.9,20.7,3.8c0.4,0.1,2.9,0.6,3.3,1.1c-2.4-1.1-2.5-1.2-0.5-0.2c0.9,0.5,1.9,1,2.8,1.5
				c0.9,0.5,1.8,1.2,2.7,1.7c1.9,1.3,1.7,1.2-0.4-0.5c0.8,0.7,1.7,1.3,2.5,2c4.9,4.2,9.2,9.1,13.5,13.9c7,7.8,19.7,7.7,27.6,1.6
				c7.8-6,11.4-18.4,5.4-27.1c-1.1-1.6-2.3-3.3-3.4-4.9c-6,10.5-12.1,21.1-18.1,31.6c14.6-0.8,29.3-2.8,43.6-6.1
				c10.7-2.4,18-15.4,14.7-25.8C912.2,177.9,901.5,171.9,890,174.5L890,174.5z"/>
		</g>
	</g>
	<g>
		<g>
			<path d="M649,71.3c11,0,21.5-9.7,21-21c-0.5-11.4-9.2-21-21-21c-11,0-21.5,9.7-21,21C628.5,61.7,637.2,71.3,649,71.3L649,71.3z"
				/>
		</g>
	</g>
	<g>
		<g>
			<path d="M649,70c11,0,21.5-9.7,21-21c-0.5-11.4-9.2-21-21-21c-11,0-21.5,9.7-21,21C628.5,60.4,637.2,70,649,70L649,70z"/>
		</g>
	</g>
	<g>
		<g>
			<path d="M647.7,70.7c11,0,21.5-9.7,21-21c-0.5-11.4-9.2-21-21-21c-11,0-21.5,9.7-21,21C627.2,61,635.9,70.7,647.7,70.7
				L647.7,70.7z"/>
		</g>
	</g>
	<polygon class="st0" points="686.9,180.1 655,163.2 622.9,180 629.1,144.4 603.3,119.1 639,114 655.1,81.6 671,114 706.8,119.3 
		680.8,144.4 	"/>
</g>
</svg>
