<?xml version="1.0" encoding="utf-8"?>
<!-- Generator: Adobe Illustrator 22.0.1, SVG Export Plug-In . SVG Version: 6.00 Build 0)  -->
<svg version="1.1" xmlns="http://www.w3.org/2000/svg" xmlns:xlink="http://www.w3.org/1999/xlink" x="0px" y="0px"
	 viewBox="0 0 4200 600" style="enable-background:new 0 0 4200 600;" xml:space="preserve">
<style type="text/css">
	.st0{fill:none;stroke:#006837;stroke-width:20;stroke-miterlimit:10;}
	.st1{fill:#006837;}
	.st2{fill:#FFFFFF;stroke:#000000;stroke-miterlimit:10;}
	.st3{fill:#009245;stroke:#006837;stroke-width:9;stroke-miterlimit:10;}
	.st4{clip-path:url(#SVGID_2_);}
	.st5{clip-path:url(#SVGID_2_);fill:#FFFF00;}
	.st6{clip-path:url(#SVGID_2_);fill:none;stroke:#FFFF00;stroke-width:5;stroke-miterlimit:10;}
	.st7{clip-path:url(#SVGID_6_);fill:#FFFF00;}
	.st8{clip-path:url(#SVGID_6_);fill:none;stroke:#FFFF00;stroke-width:5;stroke-miterlimit:10;}
	.st9{clip-path:url(#SVGID_6_);fill:none;stroke:#FFFF00;stroke-width:12;stroke-miterlimit:10;}
	.st10{clip-path:url(#SVGID_8_);fill:none;stroke:#FFFF00;stroke-width:12;stroke-miterlimit:10;}
</style>
<g id="Слой_3">
	<path class="st0" d="M3032.5,114.5c0,113.2-169.9,465.5-224.5,465.5"/>
	<path class="st0" d="M2813,579c-67.4,0-122,9.5-122,21.2"/>
	<path class="st0" d="M1183.5,114.5c0,113.2,169.9,465.5,224.5,465.5"/>
	<path class="st0" d="M1403,579c67.4,0,122,9.5,122,21.2"/>
	<g>
		<g>
			<path class="st1" d="M1412.5,585.5c-1.7,0.2-3.2,0-4.7-0.8c-1.7-0.9-3.2,1.7-1.5,2.6c1.9,1,4.1,1.5,6.3,1.2
				c0.8-0.1,1.5-0.6,1.5-1.5C1414,586.3,1413.3,585.4,1412.5,585.5L1412.5,585.5z"/>
		</g>
	</g>
	<g>
		<g>
			<path class="st1" d="M1403.6,586c2,0.6,3.9,1.2,5.9,1.7c0.1-1,0.3-2,0.4-2.9c-2,0.2-3.9,0.3-5.9,0.5c-1.7,0.1-2,2.4-0.4,2.9
				c4.5,1.6,9.1,2.4,13.9,1.9c4.9-0.4,9.5-3,14.5-2.6c1.9,0.1,1.9-2.9,0-3c-4.1-0.3-7.5,1.4-11.5,2.2c-5.5,1.1-10.9,0.5-16.1-1.4
				c-0.1,1-0.3,2-0.4,2.9c2-0.1,3.9-0.3,5.9-0.5c1.6-0.2,2.1-2.4,0.4-2.9c-2-0.6-3.9-1.2-5.9-1.7
				C1402.6,582.5,1401.8,585.4,1403.6,586L1403.6,586z"/>
		</g>
	</g>
	<g>
		<g>
			<path class="st1" d="M1409,588c1.9,0,1.9-3,0-3C1407.1,585,1407.1,588,1409,588L1409,588z"/>
		</g>
	</g>
	<g>
		<g>
			<path class="st1" d="M1407.5,589c1.9,0,1.9-3,0-3C1405.6,586,1405.6,589,1407.5,589L1407.5,589z"/>
		</g>
	</g>
	<g>
		<g>
			<path class="st1" d="M1407.5,589.5c1.9,0,1.9-3,0-3C1405.6,586.5,1405.6,589.5,1407.5,589.5L1407.5,589.5z"/>
		</g>
	</g>
	<g>
		<g>
			<path class="st1" d="M1408,590c1.9,0,1.9-3,0-3C1406.1,587,1406.1,590,1408,590L1408,590z"/>
		</g>
	</g>
	<g>
		<g>
			<path class="st1" d="M1409,590c1.9,0,1.9-3,0-3C1407.1,587,1407.1,590,1409,590L1409,590z"/>
		</g>
	</g>
	<path class="st2" d="M1371.5,525.5"/>
	<path class="st3" d="M1302.4,553.8c-42.7-4.9-84.5-59.7-74.4-75.5c12.1-19,107,5.8,113.3,42.2c1.2,7-0.1,18.8-7.6,26.2
		C1324,556.3,1308.6,554.5,1302.4,553.8z"/>
	<path class="st3" d="M1239.3,459.4c-39.9-16-65.9-79.9-51.9-92.4c16.7-15.1,101.7,33.7,98.3,70.5c-0.7,7.1-5,18.1-14.3,23.3
		C1259.5,467.5,1245.1,461.8,1239.3,459.4z"/>
	<path class="st3" d="M1190.9,353.6c-38.2-19.7-58-85.7-43-97c18-13.5,98.1,43.2,91.1,79.5c-1.3,7-6.7,17.5-16.4,21.9
		C1210.2,363.6,1196.4,356.4,1190.9,353.6z"/>
	<path class="st3" d="M1148.1,244.6c-38.7-18.7-60.2-84.2-45.4-95.8c17.7-13.9,99.1,40.7,93.1,77.2c-1.2,7-6.3,17.7-15.9,22.3
		C1167.7,254.1,1153.7,247.3,1148.1,244.6z"/>
	<path class="st3" d="M1146.6,123.4c-19.4-38.3,3.4-103.5,22.1-103.7c22.5-0.3,54.1,92.5,27.1,117.8c-5.2,4.9-15.7,10.2-26.1,8.1
		C1156.5,142.8,1149.5,129,1146.6,123.4z"/>
	<path class="st3" d="M1404.4,506c13.7-40.7-18.1-101.9-36.7-99.5c-22.3,2.9-40.3,99.3-10.1,120.5c5.8,4.1,17,7.9,27,4.3
		C1397.4,526.7,1402.4,512,1404.4,506z"/>
	<path class="st3" d="M1348.2,408.9c17.4-39.3-8.6-103.1-27.4-102.5c-22.5,0.8-49.3,95.1-21.1,119.1c5.4,4.6,16.2,9.4,26.5,6.7
		C1339.4,428.8,1345.6,414.6,1348.2,408.9z"/>
	<path class="st3" d="M1304.2,305.8c21.4-37.2,2.3-103.5-16.4-104.8c-22.5-1.5-59,89.4-33.5,116.2c4.9,5.2,15.1,11.1,25.6,9.5
		C1293.4,324.7,1301.1,311.3,1304.2,305.8z"/>
	<path class="st3" d="M1209.1,198.4c-11.8-41.3,22.9-100.9,41.4-97.6c22.2,4,35.6,101.1,4.3,120.9c-6,3.8-17.4,7.1-27.2,3
		C1215,219.4,1210.8,204.4,1209.1,198.4z"/>
</g>
<g id="Слой_1">
	<g>
		<g>
			<defs>
				<rect id="SVGID_1_" x="1808" width="600" height="600"/>
			</defs>
			<clipPath id="SVGID_2_">
				<use xlink:href="#SVGID_1_"  style="overflow:visible;"/>
			</clipPath>
			<g class="st4">
				<defs>
					<rect id="SVGID_3_" x="1808" y="7" width="599" height="593"/>
				</defs>
				<clipPath id="SVGID_4_">
					<use xlink:href="#SVGID_3_"  style="overflow:visible;"/>
				</clipPath>
			</g>
			<polygon class="st5" points="2306.5,171.5 2184.5,171.5 2122.5,64.5 2093.5,64.5 2031.5,171.5 1909.5,171.5 1895.5,197.5 
				1956.5,302.5 1895.5,410.5 1907.5,433.5 2032.5,433.5 2093.5,539.5 2122.5,539.5 2183.5,433.5 2306.5,433.5 2319.5,408.5 
				2258.5,301.5 2319.5,196.5 			"/>
			<polygon class="st6" points="2306.5,171.5 2184.5,171.5 2122.5,64.5 2093.5,64.5 2031.5,171.5 1909.5,171.5 1895.5,197.5 
				1956.5,302.5 1895.5,410.5 1907.5,433.5 2032.5,433.5 2093.5,539.5 2122.5,539.5 2183.5,433.5 2306.5,433.5 2319.5,408.5 
				2258.5,301.5 2319.5,196.5 			"/>
			<g class="st4">
				<defs>
					<rect id="SVGID_5_" x="1808" width="600" height="600"/>
				</defs>
				<clipPath id="SVGID_6_">
					<use xlink:href="#SVGID_5_"  style="overflow:visible;"/>
				</clipPath>
				<path class="st7" d="M1857.5,172c0-14.1,11.4-25.5,25.5-25.5s25.5,11.4,25.5,25.5c0,14.1-11.4,25.5-25.5,25.5
					S1857.5,186.1,1857.5,172"/>
				<circle class="st8" cx="1883" cy="172" r="25.5"/>
				<path class="st7" d="M2082.5,42c0-14.1,11.4-25.5,25.5-25.5s25.5,11.4,25.5,25.5c0,14.1-11.4,25.5-25.5,25.5
					S2082.5,56.1,2082.5,42"/>
				<circle class="st8" cx="2108" cy="42" r="25.5"/>
				<path class="st7" d="M2082.5,564c0-14.1,11.4-25.5,25.5-25.5s25.5,11.4,25.5,25.5s-11.4,25.5-25.5,25.5S2082.5,578.1,2082.5,564
					"/>
				<circle class="st8" cx="2108" cy="564" r="25.5"/>
				<path class="st7" d="M2308.5,431c0-14.1,11.4-25.5,25.5-25.5s25.5,11.4,25.5,25.5s-11.4,25.5-25.5,25.5S2308.5,445.1,2308.5,431
					"/>
				<circle class="st8" cx="2334" cy="431" r="25.5"/>
				<path class="st7" d="M1857.5,431c0-14.1,11.4-25.5,25.5-25.5s25.5,11.4,25.5,25.5s-11.4,25.5-25.5,25.5S1857.5,445.1,1857.5,431
					"/>
				<circle class="st8" cx="1883" cy="431" r="25.5"/>
				<path class="st7" d="M2308.5,172c0-14.1,11.4-25.5,25.5-25.5s25.5,11.4,25.5,25.5c0,14.1-11.4,25.5-25.5,25.5
					S2308.5,186.1,2308.5,172"/>
				<circle class="st8" cx="2334" cy="172" r="25.5"/>
				<path class="st9" d="M2347,194c51.9,114.9,6.1,201,1,216"/>
				<path class="st9" d="M2324,453c-33.6,56.3-122.5,109.7-190,111"/>
				<path class="st9" d="M2082,564c-69.2,0.2-153.2-49.9-193-114"/>
				<path class="st9" d="M1868,411c-31.2-57.6-32.4-160,1-220"/>
			</g>
			<g class="st4">
				<defs>
					<rect id="SVGID_7_" x="1808" width="600" height="600"/>
				</defs>
				<clipPath id="SVGID_8_">
					<use xlink:href="#SVGID_7_"  style="overflow:visible;"/>
				</clipPath>
				<path class="st10" d="M1895.5,146.5c34.8-54.8,119.7-101.6,187-104"/>
				<path class="st10" d="M2134,42c78.8,7.9,162.7,55.7,188,108"/>
			</g>
		</g>
	</g>
	<path class="st2" d="M2844.5,525.5"/>
	<path class="st3" d="M2913.6,553.8c42.7-4.9,84.5-59.7,74.4-75.5c-12.1-19-107,5.8-113.3,42.2c-1.2,7,0.1,18.8,7.6,26.2
		C2892,556.3,2907.4,554.5,2913.6,553.8z"/>
	<path class="st3" d="M2976.7,459.4c39.9-16,65.9-79.9,51.9-92.4c-16.7-15.1-101.7,33.7-98.3,70.5c0.7,7.1,5,18.1,14.3,23.3
		C2956.5,467.5,2970.9,461.8,2976.7,459.4z"/>
	<path class="st3" d="M3025.1,353.6c38.2-19.7,58-85.7,43-97c-18-13.5-98.1,43.2-91.1,79.5c1.3,7,6.7,17.5,16.4,21.9
		C3005.8,363.6,3019.6,356.4,3025.1,353.6z"/>
	<path class="st3" d="M3068,244.6c38.7-18.7,60.2-84.2,45.4-95.8c-17.7-13.9-99.1,40.7-93.1,77.2c1.2,7,6.3,17.7,15.9,22.3
		C3048.4,254.1,3062.3,247.3,3068,244.6z"/>
	<path class="st3" d="M3069.4,123.4c19.4-38.3-3.4-103.5-22.1-103.7c-22.5-0.3-54.1,92.5-27.1,117.8c5.2,4.9,15.7,10.2,26.1,8.1
		C3059.6,142.8,3066.6,129,3069.4,123.4z"/>
</g>
<g id="Слой_2">
	<path class="st3" d="M2811.7,506c-13.7-40.7,18.1-101.9,36.7-99.5c22.3,2.9,40.3,99.3,10.1,120.5c-5.8,4.1-17,7.9-27,4.3
		C2818.6,526.7,2813.7,512,2811.7,506z"/>
	<path class="st3" d="M2867.9,408.9c-17.4-39.3,8.6-103.1,27.4-102.5c22.5,0.8,49.3,95.1,21.1,119.1c-5.4,4.6-16.2,9.4-26.5,6.7
		C2876.7,428.8,2870.4,414.6,2867.9,408.9z"/>
	<path class="st3" d="M2911.8,305.8c-21.4-37.2-2.3-103.5,16.4-104.8c22.5-1.5,59,89.4,33.5,116.2c-4.9,5.2-15.1,11.1-25.6,9.5
		C2922.7,324.7,2914.9,311.3,2911.8,305.8z"/>
	<path class="st3" d="M3007,198.4c11.8-41.3-22.9-100.9-41.4-97.6c-22.2,4-35.6,101.1-4.3,120.9c6,3.8,17.4,7.1,27.2,3
		C3001,219.4,3005.3,204.4,3007,198.4z"/>
	<path class="st0" d="M4133.5,224.7c-38.1,106.6-316.5,381.3-367.9,363"/>
	<path class="st0" d="M3770.7,588.4c-63.5-22.7-118.1-32.1-122-21.1"/>
	<path class="st2" d="M3818.3,548.6"/>
	<path class="st3" d="M3873.9,598.5c41.8,9.7,99.7-27.8,95.5-46.1c-5-21.9-102.7-30.5-120.9,1.6c-3.5,6.2-6.2,17.7-1.6,27.3
		C3852.7,593.5,3867.9,597,3873.9,598.5z"/>
	<path class="st3" d="M3965.1,530.8c42.9-1.6,88.9-53.1,80-69.6c-10.6-19.8-107.1-2.5-116.2,33.4c-1.8,6.9-1.3,18.7,5.6,26.8
		C3943.3,531.6,3958.8,531,3965.1,530.8z"/>
	<path class="st3" d="M4046.2,447.4c42.6-5.7,83.4-61.3,73-76.9c-12.5-18.7-106.9,7.7-112.6,44.2c-1.1,7.1,0.5,18.8,8.1,26.1
		C4024.7,450.3,4040.1,448.2,4046.2,447.4z"/>
	<path class="st3" d="M4123.2,359.1c42.7-4.6,85-59.1,75-75c-12-19-107,5-113.6,41.4c-1.3,7,0,18.8,7.4,26.3
		C4101.6,361.5,4117,359.8,4123.2,359.1z"/>
	<path class="st3" d="M4165.3,245.5c31.1-29.6,31.6-98.6,14-105.1c-21.1-7.9-82,68.9-65.2,101.9c3.3,6.4,11.4,14.9,21.9,16.4
		C4149.5,260.4,4160.8,249.8,4165.3,245.5z"/>
	<path class="st3" d="M3794,519.2c0.8-42.9,51.3-89.9,68-81.4c20,10.2,4.6,107-31,116.9c-6.9,1.9-18.7,1.7-26.9-5.1
		C3793.6,541,3793.9,525.5,3794,519.2z"/>
	<path class="st3" d="M3879.5,446.6c-3.2-42.8,42.8-94.3,60.2-87.3c20.9,8.3,14.4,106.2-20.1,119.2c-6.7,2.5-18.5,3.4-27.2-2.6
		C3881.1,468.3,3880,452.9,3879.5,446.6z"/>
	<path class="st3" d="M3955.6,364.3c-7.7-42.3,32.6-98.2,50.7-93.1c21.7,6.1,25.5,104.1-7.5,120.7c-6.4,3.2-18,5.3-27.3,0.3
		C3959.4,385.7,3956.7,370.5,3955.6,364.3z"/>
	<path class="st3" d="M4081.3,295.2c25-35,12.4-102.8-6.1-105.9c-22.2-3.7-67.5,83.2-44.7,112.4c4.4,5.6,14,12.5,24.6,11.9
		C4068.6,312.9,4077.7,300.2,4081.3,295.2z"/>
	<path class="st0" d="M65.8,224.7c38.1,106.6,316.5,381.3,367.9,363"/>
	<path class="st0" d="M428.6,588.4c63.5-22.7,118.1-32.1,122-21.1"/>
	<path class="st2" d="M381,548.6"/>
	<path class="st3" d="M325.4,598.5c-41.8,9.7-99.7-27.8-95.5-46.1c5-21.9,102.7-30.5,120.9,1.6c3.5,6.2,6.2,17.7,1.6,27.3
		C346.6,593.5,331.5,597,325.4,598.5z"/>
	<path class="st3" d="M234.3,530.8c-42.9-1.6-88.9-53.1-80-69.6c10.6-19.8,107.1-2.5,116.2,33.4c1.8,6.9,1.3,18.7-5.6,26.8
		C256,531.6,240.5,531,234.3,530.8z"/>
	<path class="st3" d="M153.1,447.4c-42.6-5.7-83.4-61.3-73-76.9c12.5-18.7,106.9,7.7,112.6,44.2c1.1,7.1-0.5,18.8-8.1,26.1
		C174.6,450.3,159.3,448.2,153.1,447.4z"/>
	<path class="st3" d="M76.1,359.1c-42.7-4.6-85-59.1-75-75c12-19,107,5,113.6,41.4c1.3,7,0,18.8-7.4,26.3
		C97.8,361.5,82.3,359.8,76.1,359.1z"/>
	<path class="st3" d="M34,245.5C2.9,215.9,2.4,146.9,20,140.3c21.1-7.9,82,68.9,65.2,101.9c-3.3,6.4-11.4,14.9-21.9,16.4
		C49.8,260.4,38.6,249.8,34,245.5z"/>
	<path class="st3" d="M405.4,519.2c-0.8-42.9-51.3-89.9-68-81.4c-20,10.2-4.6,107,31,116.9c6.9,1.9,18.7,1.7,26.9-5.1
		C405.7,541,405.5,525.5,405.4,519.2z"/>
	<path class="st3" d="M319.8,446.6c3.2-42.8-42.8-94.3-60.2-87.3c-20.9,8.3-14.4,106.2,20.1,119.2c6.7,2.5,18.5,3.4,27.2-2.6
		C318.2,468.3,319.3,452.9,319.8,446.6z"/>
	<path class="st3" d="M243.8,364.3c7.7-42.3-32.6-98.2-50.7-93.1c-21.7,6.1-25.5,104.1,7.5,120.7c6.4,3.2,18,5.3,27.3,0.3
		C239.9,385.7,242.6,370.5,243.8,364.3z"/>
	<path class="st3" d="M118,295.2c-25-35-12.4-102.8,6.1-105.9c22.2-3.7,67.5,83.2,44.7,112.4c-4.4,5.6-14,12.5-24.6,11.9
		C130.7,312.9,121.7,300.2,118,295.2z"/>
</g>
</svg>
